fontCallback.success({"glyphs":{"S":{"x_min":100,"x_max":899,"ha":1000,"o":"m 833 980 l 833 767 q 670 823 749 804 q 520 842 590 842 q 381 816 426 842 q 337 736 337 790 q 367 672 337 695 q 476 633 397 650 l 587 611 q 827 508 756 577 q 899 311 899 438 q 799 61 899 143 q 496 -20 700 -20 q 302 -1 399 -20 q 109 52 205 16 l 109 273 q 296 195 205 221 q 470 169 386 169 q 601 197 556 169 q 647 279 647 226 q 616 352 647 326 q 493 398 585 378 l 392 421 q 170 524 240 453 q 100 716 100 596 q 197 949 100 868 q 478 1031 295 1031 q 650 1018 562 1031 q 833 980 738 1005 "},"¦":{"x_min":176,"x_max":330,"ha":507,"o":"m 330 971 l 330 457 l 176 457 l 176 971 l 330 971 m 330 277 l 330 -237 l 176 -237 l 176 277 l 330 277 "},"/":{"x_min":0,"x_max":507,"ha":507,"o":"m 356 1013 l 507 1013 l 149 -128 l 0 -128 l 356 1013 "},"₢":{"x_min":40.6875,"x_max":926.453125,"ha":966,"o":"m 653 175 q 717 192 686 181 q 852 265 784 215 l 852 55 q 711 0 784 18 q 558 -18 637 -18 q 180 122 319 -18 q 40 505 40 263 q 180 889 40 748 q 558 1030 319 1030 q 711 1011 637 1030 q 852 955 784 992 l 852 746 q 717 818 784 795 q 577 841 651 841 q 370 752 446 841 q 295 505 295 662 q 370 259 295 348 q 446 198 403 219 l 446 683 l 653 683 l 653 571 q 744 669 693 638 q 868 699 795 699 q 890 699 878 699 q 925 695 902 698 l 926 497 q 872 517 898 510 q 817 523 845 523 q 695 469 738 523 q 653 314 653 415 l 653 175 "},"y":{"x_min":17,"x_max":880,"ha":905,"o":"m 17 760 l 259 760 l 463 244 l 637 760 l 880 760 l 560 -72 q 448 -249 512 -199 q 279 -300 384 -300 l 139 -300 l 139 -141 l 214 -141 q 304 -121 276 -141 q 348 -50 332 -101 l 355 -29 l 17 760 "},"฿":{"x_min":133.609375,"x_max":933.90625,"ha":1032,"o":"m 559 -204 l 449 -204 l 449 0 l 133 0 l 133 891 l 449 891 l 449 1055 l 559 1055 l 559 890 q 803 834 723 883 q 893 655 893 778 q 860 544 893 590 q 764 476 827 499 q 889 397 845 455 q 933 255 933 339 q 838 63 933 126 q 559 0 746 1 l 559 -204 m 449 149 l 449 383 l 375 383 l 375 149 l 449 149 m 559 381 l 559 151 q 636 179 608 157 q 674 267 674 208 q 636 354 674 325 q 559 381 609 375 m 449 539 l 449 728 l 375 728 l 375 539 l 449 539 m 559 723 l 559 543 q 604 563 586 549 q 634 634 634 587 q 604 704 634 679 q 559 723 586 718 "},"Á":{"x_min":7,"x_max":1068,"ha":1075,"o":"m 741 184 l 333 184 l 269 0 l 7 0 l 381 1013 l 693 1013 l 1068 0 l 805 0 l 741 184 m 398 372 l 676 372 l 537 775 l 398 372 m 555 1288 l 747 1288 l 553 1109 l 421 1109 l 555 1288 "},"g":{"x_min":62,"x_max":877,"ha":994,"o":"m 633 129 q 522 31 582 62 q 382 0 462 0 q 152 109 243 0 q 62 388 62 219 q 152 668 62 559 q 382 777 243 777 q 522 745 462 777 q 633 647 582 714 l 633 760 l 877 760 l 877 76 q 761 -203 877 -106 q 426 -300 645 -300 q 288 -288 354 -300 q 155 -255 222 -277 l 155 -66 q 279 -120 218 -102 q 402 -139 340 -139 q 577 -86 521 -139 q 633 76 633 -34 l 633 129 m 473 602 q 355 546 397 602 q 314 388 314 490 q 354 230 314 284 q 473 176 395 176 q 591 231 549 176 q 633 388 633 287 q 591 546 633 490 q 473 602 549 602 "},"²":{"x_min":74,"x_max":530,"ha":608,"o":"m 278 567 l 530 567 l 530 453 l 74 453 l 74 556 l 285 737 q 344 800 326 773 q 362 855 362 827 q 337 909 362 888 q 272 931 312 931 q 182 915 230 931 q 78 869 134 900 l 78 994 q 192 1021 136 1012 q 298 1031 247 1031 q 466 987 405 1031 q 527 868 527 943 q 502 778 527 819 q 410 679 478 737 l 278 567 "},"ë":{"x_min":60,"x_max":875,"ha":942,"o":"m 875 382 l 875 313 l 308 313 q 369 184 316 227 q 517 141 422 141 q 674 163 593 141 q 839 233 754 186 l 839 46 q 666 -3 752 13 q 494 -20 580 -20 q 174 84 288 -20 q 60 379 60 189 q 172 671 60 564 q 481 778 284 778 q 767 670 660 778 q 875 382 875 562 m 625 463 q 584 574 625 532 q 479 617 544 617 q 365 577 409 617 q 310 463 321 537 l 625 463 m 281 1075 l 440 1075 l 440 908 l 281 908 l 281 1075 m 549 1075 l 708 1075 l 708 908 l 549 908 l 549 1075 "},"Î":{"x_min":3,"x_max":514,"ha":517,"o":"m 128 1013 l 389 1013 l 389 0 l 128 0 l 128 1013 m 154 1288 l 362 1288 l 514 1109 l 393 1109 l 258 1218 l 123 1109 l 3 1109 l 154 1288 "},"Ꙅ":{"x_min":35.953125,"x_max":834.890625,"ha":1000,"o":"m 102 980 q 284 1018 196 1005 q 456 1030 373 1030 q 737 949 639 1030 q 834 716 834 868 q 765 524 834 596 q 542 421 694 453 l 441 398 q 318 352 349 378 q 287 279 287 326 q 333 198 287 226 q 463 169 378 169 q 638 195 548 169 q 826 273 729 221 l 826 52 q 632 -1 729 16 q 438 -19 535 -19 q 135 62 234 -19 q 35 311 35 143 q 107 507 35 438 q 347 611 178 577 l 458 633 q 568 672 537 649 q 598 735 598 695 q 553 815 598 790 q 415 841 508 841 q 265 822 344 841 q 102 766 185 803 l 102 980 "},"e":{"x_min":60,"x_max":875,"ha":942,"o":"m 875 382 l 875 313 l 308 313 q 369 184 316 227 q 517 141 422 141 q 674 163 593 141 q 839 233 754 186 l 839 46 q 666 -3 752 13 q 494 -20 580 -20 q 174 84 288 -20 q 60 379 60 189 q 172 671 60 564 q 481 778 284 778 q 767 670 660 778 q 875 382 875 562 m 625 463 q 584 574 625 532 q 479 617 544 617 q 365 577 409 617 q 310 463 321 537 l 625 463 "},"Ã":{"x_min":7,"x_max":1068,"ha":1075,"o":"m 741 184 l 333 184 l 269 0 l 7 0 l 381 1013 l 693 1013 l 1068 0 l 805 0 l 741 184 m 398 372 l 676 372 l 537 775 l 398 372 m 538 1146 l 500 1170 q 493 1174 498 1171 q 444 1192 463 1192 q 408 1171 422 1192 q 395 1117 395 1151 l 395 1113 l 301 1113 q 301 1123 301 1116 q 302 1133 302 1130 q 338 1249 302 1205 q 434 1294 375 1294 q 484 1285 459 1294 q 535 1260 509 1276 l 576 1233 q 603 1219 590 1224 q 627 1214 616 1214 q 666 1234 652 1214 q 679 1294 679 1255 l 774 1294 q 773 1283 774 1289 q 772 1272 772 1276 q 736 1156 772 1200 q 640 1113 699 1113 q 591 1120 614 1113 q 538 1146 567 1127 "},"J":{"x_min":-78,"x_max":389,"ha":517,"o":"m 128 1013 l 389 1013 l 389 98 q 286 -184 389 -90 q -24 -278 183 -278 l -78 -278 l -78 -81 l -37 -81 q 86 -35 44 -81 q 128 98 128 9 l 128 1013 "},"»":{"x_min":131,"x_max":790,"ha":897,"o":"m 456 721 l 790 469 l 790 343 l 456 93 l 456 257 l 654 407 l 456 556 l 456 721 m 131 721 l 464 469 l 464 343 l 131 93 l 131 257 l 329 407 l 131 556 l 131 721 "},"ꙮ":{"x_min":39.34375,"x_max":1295.40625,"ha":1335,"o":"m 815 14 l 914 14 l 914 -90 l 815 -90 l 815 14 m 420 14 l 520 14 l 520 -90 l 420 -90 l 420 14 m 815 826 l 914 826 l 914 720 l 815 720 l 815 826 m 420 826 l 520 826 l 520 720 l 420 720 l 420 826 m 223 421 l 323 421 l 323 315 l 223 315 l 223 421 m 1012 421 l 1112 421 l 1112 315 l 1012 315 l 1012 421 m 368 497 q 273 543 333 543 q 177 497 212 543 q 142 372 142 451 q 177 246 142 292 q 273 200 212 200 q 368 246 333 200 q 404 372 404 292 q 368 497 404 451 m 565 902 q 470 948 531 948 q 374 902 410 948 q 339 777 339 856 q 374 652 339 697 q 470 606 410 606 q 565 652 531 606 q 600 777 600 697 q 565 902 600 856 m 960 902 q 864 948 925 948 q 769 902 804 948 q 733 777 733 856 q 769 652 733 697 q 864 606 804 606 q 960 652 925 606 q 995 777 995 697 q 960 902 995 856 m 1158 497 q 1062 543 1123 543 q 966 497 1002 543 q 931 372 931 451 q 966 246 931 292 q 1062 200 1002 200 q 1158 246 1123 200 q 1193 372 1193 292 q 1158 497 1193 451 m 762 497 q 667 543 727 543 q 571 497 607 543 q 536 372 536 451 q 571 246 536 292 q 667 200 607 200 q 762 246 727 200 q 797 372 797 292 q 762 497 797 451 m 565 91 q 470 137 531 137 q 374 91 410 137 q 339 -34 339 45 q 374 -159 339 -113 q 470 -205 410 -205 q 565 -159 531 -205 q 600 -34 600 -113 q 565 91 600 45 m 960 91 q 864 137 925 137 q 769 91 804 137 q 733 -34 733 45 q 769 -159 733 -113 q 864 -205 804 -205 q 960 -159 925 -205 q 995 -34 995 -113 q 960 91 995 45 m 1062 626 q 1231 556 1167 626 q 1295 370 1295 487 q 1231 187 1295 256 q 1062 118 1167 118 l 1060 118 q 1098 -34 1098 55 q 1034 -219 1098 -150 q 864 -288 971 -288 q 695 -220 758 -288 q 667 -182 678 -202 q 640 -219 656 -202 q 470 -288 577 -288 q 300 -219 363 -288 q 237 -34 237 -151 q 275 118 237 55 q 273 118 274 118 q 103 186 166 118 q 39 370 39 255 q 103 556 39 487 q 273 626 166 626 l 274 626 q 237 777 237 687 q 300 962 237 893 q 470 1031 363 1031 q 640 963 577 1031 q 667 925 656 945 q 695 963 678 945 q 864 1031 758 1031 q 1034 962 971 1031 q 1098 777 1098 893 q 1060 626 1098 687 l 1062 626 m 617 421 l 717 421 l 717 315 l 617 315 l 617 421 "},"₨":{"x_min":127.5,"x_max":1607.390625,"ha":1673,"o":"m 498 563 q 616 594 580 563 q 651 694 651 624 q 616 793 651 763 q 498 823 580 823 l 388 823 l 388 563 l 498 563 m 1041 1 l 1041 0 l 763 0 l 640 251 q 564 355 602 327 q 462 383 526 383 l 388 383 l 388 0 l 127 0 l 127 1012 l 526 1012 q 819 945 726 1012 q 912 733 912 878 q 864 568 912 632 q 718 473 815 503 q 814 418 771 461 q 900 287 856 375 l 939 207 q 1079 159 1007 175 q 1233 141 1155 141 q 1340 161 1304 141 q 1376 219 1376 181 q 1352 268 1376 252 q 1253 293 1327 284 l 1210 298 q 983 373 1048 318 q 918 540 918 428 q 1001 719 918 661 q 1254 777 1083 777 q 1395 767 1321 777 q 1556 735 1469 757 l 1556 551 q 1405 600 1478 583 q 1268 616 1333 616 q 1166 599 1199 616 q 1132 545 1132 581 q 1158 501 1132 516 q 1249 478 1183 485 l 1292 472 q 1542 394 1478 448 q 1607 223 1607 339 q 1517 41 1607 102 q 1250 -19 1428 -19 q 1095 -7 1175 -19 q 1041 1 1068 -3 "},"₪":{"x_min":53.578125,"x_max":1193.671875,"ha":1256,"o":"m 54 1012 l 454 1012 q 756 907 657 1012 q 855 587 855 802 l 855 353 l 677 353 l 677 587 q 639 766 677 712 q 484 820 602 820 l 295 820 l 293 -18 l 53 -18 l 54 1012 m 1193 -19 l 792 -18 q 491 85 590 -18 q 392 405 392 190 l 392 639 l 569 639 l 569 405 q 607 226 569 280 q 762 172 644 172 l 954 172 l 954 1012 l 1193 1012 l 1193 -19 "},"Ꙭ":{"x_min":69.171875,"x_max":1883.421875,"ha":1953,"o":"m 1241 634 l 1485 634 l 1485 372 l 1241 372 l 1241 634 m 469 634 l 713 634 l 713 372 l 469 372 l 469 634 m 590 1030 q 976 887 838 1030 q 1362 1030 1115 1030 q 1745 891 1606 1030 q 1883 505 1883 751 q 1745 120 1883 259 q 1362 -19 1606 -19 q 976 124 1115 -19 q 590 -19 838 -19 q 207 120 346 -19 q 69 505 69 259 q 207 891 69 751 q 590 1030 346 1030 m 590 841 q 404 753 470 841 q 339 505 339 665 q 404 257 339 345 q 590 169 470 169 q 775 257 710 169 q 841 505 841 345 q 775 753 841 665 q 590 841 710 841 m 1362 841 q 1177 753 1243 841 q 1111 505 1111 665 q 1177 257 1111 345 q 1362 169 1243 169 q 1548 257 1482 169 q 1614 505 1614 345 q 1548 753 1614 665 q 1362 841 1482 841 "},"©":{"x_min":192,"x_max":1197,"ha":1389,"o":"m 897 763 l 897 618 q 820 655 858 643 q 744 667 783 667 q 625 623 668 667 q 582 502 582 580 q 624 381 582 424 q 744 339 667 339 q 826 351 787 339 q 897 387 865 363 l 897 242 q 808 219 852 227 q 722 212 764 212 q 493 291 579 212 q 407 502 407 370 q 493 713 407 634 q 722 793 579 793 q 812 785 768 793 q 897 763 855 778 m 694 903 q 541 873 612 903 q 412 784 471 843 q 323 655 353 725 q 294 502 294 585 q 323 350 294 420 q 412 220 353 279 q 541 133 470 162 q 694 104 612 104 q 847 132 778 104 q 976 220 917 161 q 1065 350 1035 279 q 1095 502 1095 420 q 1065 655 1095 585 q 976 784 1035 725 q 846 873 917 844 q 694 903 776 903 m 694 1007 q 886 969 797 1007 q 1049 858 975 932 q 1160 695 1123 784 q 1197 502 1197 606 q 1160 310 1197 399 q 1049 148 1123 222 q 886 37 975 74 q 694 0 797 0 q 502 37 591 0 q 339 148 413 74 q 228 310 265 222 q 192 502 192 399 q 228 695 192 606 q 339 858 265 784 q 502 969 413 932 q 694 1007 591 1007 "},"ò":{"x_min":60,"x_max":895,"ha":954,"o":"m 478 604 q 355 546 397 604 q 313 379 313 488 q 355 211 313 269 q 478 154 397 154 q 599 211 557 154 q 642 379 642 269 q 599 546 642 488 q 478 604 557 604 m 478 778 q 784 672 674 778 q 895 379 895 566 q 784 85 895 191 q 478 -20 674 -20 q 170 85 281 -20 q 60 379 60 191 q 170 672 60 566 q 478 778 281 778 m 401 1111 l 593 856 l 460 856 l 210 1111 l 401 1111 "},"Ꙫ":{"x_min":69.171875,"x_max":1371.359375,"ha":1441,"o":"m 442 627 l 666 627 l 666 378 l 442 378 l 442 627 m 774 627 l 998 627 l 998 378 l 774 378 l 774 627 m 720 841 q 439 753 539 841 q 339 505 339 665 q 439 257 339 345 q 720 169 539 169 q 1002 257 902 169 q 1102 505 1102 345 q 1002 753 1102 665 q 720 841 902 841 m 720 1030 q 1198 891 1025 1030 q 1371 505 1371 751 q 1198 120 1371 259 q 720 -19 1025 -19 q 242 120 415 -19 q 69 505 69 259 q 242 891 69 751 q 720 1030 415 1030 "},"^":{"x_min":140,"x_max":1023,"ha":1164,"o":"m 664 1013 l 1023 635 l 859 635 l 581 839 l 304 635 l 140 635 l 498 1013 l 664 1013 "},"«":{"x_min":107,"x_max":765,"ha":897,"o":"m 441 721 l 441 556 l 242 407 l 441 257 l 441 93 l 107 343 l 107 469 l 441 721 m 765 721 l 765 556 l 567 407 l 765 257 l 765 93 l 431 343 l 431 469 l 765 721 "},"D":{"x_min":128,"x_max":1081,"ha":1153,"o":"m 389 816 l 389 197 l 482 197 q 727 276 642 197 q 812 507 812 356 q 727 737 812 658 q 482 816 643 816 l 389 816 m 128 1013 l 403 1013 q 746 980 633 1013 q 940 868 859 947 q 1046 710 1011 799 q 1081 507 1081 620 q 1046 302 1081 392 q 940 144 1011 213 q 745 32 859 65 q 403 0 631 0 l 128 0 l 128 1013 "},"ꙥ":{"x_min":76.640625,"x_max":1233.6875,"ha":1267,"o":"m 76 0 l 76 173 q 223 277 196 198 q 244 635 244 337 l 244 759 l 1233 759 l 1233 609 l 900 609 l 900 0 l 657 0 l 657 585 l 486 585 l 486 560 q 440 176 486 263 q 76 0 345 0 "},"₰":{"x_min":18.984375,"x_max":900.6875,"ha":966,"o":"m 160 332 l 18 421 q 242 604 131 604 q 373 558 323 604 q 470 485 454 485 q 518 503 500 485 q 381 789 381 623 q 435 965 381 906 q 615 1030 495 1030 q 796 965 731 1030 q 853 789 853 909 q 781 519 853 635 q 900 279 900 408 q 802 54 900 127 q 538 -19 703 -19 l 538 134 q 670 177 621 134 q 706 280 706 208 q 659 383 706 339 q 472 305 581 305 q 332 375 388 305 q 259 430 288 430 q 160 332 224 430 m 632 627 q 670 789 670 700 q 655 867 670 838 q 611 906 636 906 q 567 867 583 906 q 554 789 554 834 q 632 627 554 687 "},"ÿ":{"x_min":17,"x_max":880,"ha":905,"o":"m 17 760 l 259 760 l 463 244 l 637 760 l 880 760 l 560 -72 q 448 -249 512 -199 q 279 -300 384 -300 l 139 -300 l 139 -141 l 214 -141 q 304 -121 276 -141 q 348 -50 332 -101 l 355 -29 l 17 760 m 240 1075 l 399 1075 l 399 908 l 240 908 l 240 1075 m 508 1075 l 667 1075 l 667 908 l 508 908 l 508 1075 "},"í":{"x_min":117,"x_max":538,"ha":476,"o":"m 117 760 l 360 760 l 360 0 l 117 0 l 117 760 m 346 1111 l 538 1111 l 287 856 l 155 856 l 346 1111 "},"w":{"x_min":49,"x_max":1235,"ha":1283,"o":"m 49 760 l 284 760 l 412 236 l 540 760 l 743 760 l 870 241 l 999 760 l 1235 760 l 1034 0 l 769 0 l 641 522 l 514 0 l 249 0 l 49 760 "},"$":{"x_min":108,"x_max":872,"ha":966,"o":"m 539 -204 l 429 -204 l 428 0 q 263 18 343 3 q 109 62 184 34 l 109 240 q 266 178 187 199 q 429 154 346 157 l 429 365 l 406 369 q 176 458 244 397 q 108 634 108 519 q 191 824 108 755 q 429 898 274 892 l 429 1055 l 539 1055 l 539 901 q 674 883 606 895 q 811 854 742 872 l 811 682 q 675 726 743 710 q 539 746 607 742 l 539 551 l 560 547 q 802 456 732 519 q 872 269 872 393 q 789 77 872 144 q 539 1 706 10 l 539 -204 m 429 566 l 429 743 q 351 717 380 741 q 323 658 323 694 q 349 595 323 618 q 429 566 376 572 m 539 345 l 539 157 q 627 180 598 157 q 657 247 657 202 q 629 316 657 293 q 539 345 602 338 "},"Ꙩ":{"x_min":69,"x_max":1111,"ha":1181,"o":"m 590 842 q 404 753 470 842 q 339 505 339 665 q 404 257 339 345 q 590 169 470 169 q 776 257 710 169 q 842 505 842 345 q 776 753 842 665 q 590 842 710 842 m 590 1031 q 972 891 834 1031 q 1111 505 1111 751 q 972 119 1111 259 q 590 -20 834 -20 q 207 119 346 -20 q 69 505 69 259 q 207 891 69 751 q 590 1031 346 1031 m 469 634 l 713 634 l 713 372 l 469 372 l 469 634 "},"\\":{"x_min":0,"x_max":507,"ha":507,"o":"m 356 -128 l 0 1013 l 149 1013 l 507 -128 l 356 -128 "},"ꙗ":{"x_min":116.65625,"x_max":1222.15625,"ha":1331,"o":"m 1222 433 l 1222 0 l 977 0 l 977 112 q 867 11 928 43 q 718 -19 806 -19 q 527 49 600 -19 q 453 227 453 118 q 463 305 453 269 l 359 305 l 359 0 l 116 0 l 116 759 l 359 759 l 359 455 l 608 455 q 834 486 695 486 l 977 486 l 977 505 q 931 589 977 562 q 790 616 886 616 q 644 600 712 616 q 520 554 577 585 l 520 739 q 676 768 598 758 q 834 777 755 777 q 1130 696 1039 777 q 1222 433 1222 615 m 851 341 q 736 316 775 341 q 698 240 698 290 q 729 167 698 193 q 815 141 760 141 q 930 190 883 141 q 977 314 977 240 l 977 341 l 851 341 "},"Ì":{"x_min":15,"x_max":389,"ha":517,"o":"m 128 1013 l 389 1013 l 389 0 l 128 0 l 128 1013 m 206 1288 l 341 1109 l 208 1109 l 15 1288 l 206 1288 "},"µ":{"x_min":118,"x_max":978,"ha":1022,"o":"m 118 -290 l 118 760 l 363 760 l 363 317 q 396 200 363 238 q 500 162 430 162 q 604 200 570 162 q 638 317 638 238 l 638 760 l 882 760 l 882 251 q 893 183 882 202 q 930 164 904 164 q 954 168 942 164 q 978 179 965 171 l 978 10 q 910 -12 942 -5 q 848 -20 879 -20 q 750 5 788 -20 q 688 86 711 30 q 610 6 656 33 q 504 -20 564 -20 q 418 -4 453 -20 q 363 44 383 11 l 363 -290 l 118 -290 "},"Ç":{"x_min":69,"x_max":930,"ha":1019,"o":"m 930 55 q 780 -1 858 17 q 617 -20 702 -20 q 216 121 364 -20 q 69 505 69 262 q 216 889 69 748 q 617 1031 364 1031 q 780 1012 702 1031 q 930 955 858 993 l 930 746 q 787 818 857 795 q 638 842 716 842 q 418 752 498 842 q 339 505 339 662 q 418 258 339 348 q 638 169 498 169 q 787 192 716 169 q 930 265 857 215 l 930 55 m 660 0 q 718 -78 699 -42 q 737 -145 737 -113 q 695 -241 737 -210 q 567 -272 653 -272 q 499 -267 534 -272 q 430 -254 465 -263 l 429 -151 q 491 -166 463 -161 q 542 -172 519 -172 q 603 -156 581 -172 q 626 -113 626 -140 q 611 -68 626 -96 q 566 0 596 -40 l 660 0 "},"-":{"x_min":75,"x_max":501,"ha":576,"o":"m 75 499 l 501 499 l 501 302 l 75 302 l 75 499 "},"ꙑ":{"x_min":27.125,"x_max":1315,"ha":1427,"o":"m 653 151 q 733 173 706 151 q 760 237 760 194 q 734 300 760 279 q 653 321 707 321 l 530 321 l 530 151 l 653 151 m 287 0 l 287 609 l 27 609 l 27 759 l 530 759 l 530 471 l 668 471 q 905 414 822 471 q 988 234 988 358 q 904 55 988 111 q 668 0 820 0 l 287 0 m 1072 760 l 1315 760 l 1315 0 l 1072 0 l 1072 760 "},"Q":{"x_min":69,"x_max":1111,"ha":1181,"o":"m 617 -18 l 597 -18 q 208 120 347 -18 q 69 505 69 258 q 207 891 69 751 q 590 1031 346 1031 q 973 892 836 1031 q 1111 505 1111 754 q 1038 211 1111 334 q 828 25 965 87 l 1032 -203 l 783 -203 l 617 -18 m 590 842 q 404 753 470 842 q 339 505 339 665 q 403 256 339 342 q 590 170 467 170 q 776 258 710 170 q 842 505 842 346 q 776 753 842 665 q 590 842 710 842 "},"M":{"x_min":128,"x_max":1255,"ha":1382,"o":"m 128 1013 l 460 1013 l 691 471 l 923 1013 l 1255 1013 l 1255 0 l 1008 0 l 1008 741 l 774 195 l 609 195 l 376 741 l 376 0 l 128 0 l 128 1013 "},"C":{"x_min":69,"x_max":930,"ha":1019,"o":"m 930 55 q 780 -1 858 17 q 617 -20 702 -20 q 216 121 364 -20 q 69 505 69 262 q 216 889 69 748 q 617 1031 364 1031 q 780 1012 702 1031 q 930 955 858 993 l 930 746 q 787 818 857 795 q 638 842 716 842 q 418 752 498 842 q 339 505 339 662 q 418 258 339 348 q 638 169 498 169 q 787 192 716 169 q 930 265 857 215 l 930 55 "},"ꚋ":{"x_min":5.421875,"x_max":984.78125,"ha":1093,"o":"m 5 759 l 798 759 l 798 609 l 523 609 l 523 450 l 699 450 q 911 370 838 450 q 984 135 984 289 l 984 13 q 911 -219 984 -139 q 699 -299 838 -299 l 577 -299 l 577 -140 l 619 -140 q 714 -109 689 -140 q 740 13 740 -78 l 740 137 q 714 259 740 228 q 619 290 689 290 l 523 290 l 523 0 l 281 0 l 281 609 l 5 609 l 5 759 "},"!":{"x_min":195,"x_max":439,"ha":633,"o":"m 195 1013 l 439 1013 l 439 623 l 404 340 l 229 340 l 195 623 l 195 1013 m 195 241 l 439 241 l 439 0 l 195 0 l 195 241 "},"ç":{"x_min":60,"x_max":731,"ha":823,"o":"m 731 736 l 731 538 q 631 587 681 571 q 528 604 581 604 q 369 544 426 604 q 313 379 313 485 q 369 213 313 272 q 528 154 426 154 q 636 170 585 154 q 731 221 687 187 l 731 22 q 615 -9 674 1 q 497 -20 556 -20 q 176 85 292 -20 q 60 379 60 191 q 176 672 60 566 q 497 778 292 778 q 615 767 557 778 q 731 736 673 757 m 533 0 q 591 -78 572 -42 q 610 -145 610 -113 q 568 -241 610 -210 q 440 -272 526 -272 q 372 -267 407 -272 q 303 -254 338 -263 l 302 -151 q 364 -166 336 -161 q 415 -172 392 -172 q 476 -156 454 -172 q 499 -113 499 -140 q 484 -68 499 -96 q 439 0 469 -40 l 533 0 "},"È":{"x_min":128,"x_max":848,"ha":949,"o":"m 128 1013 l 833 1013 l 833 816 l 389 816 l 389 627 l 807 627 l 807 430 l 389 430 l 389 197 l 848 197 l 848 0 l 128 0 l 128 1013 m 434 1288 l 569 1109 l 436 1109 l 243 1288 l 434 1288 "},"{":{"x_min":174,"x_max":816,"ha":989,"o":"m 816 -74 l 816 -227 l 668 -227 q 452 -167 520 -227 q 385 23 385 -107 l 385 153 q 348 295 385 255 q 215 335 311 335 l 174 335 l 174 486 l 215 486 q 348 525 311 486 q 385 666 385 564 l 385 805 q 452 995 385 936 q 668 1055 520 1055 l 816 1055 l 816 902 l 769 902 q 644 872 673 902 q 616 746 616 843 l 616 634 q 585 479 616 528 q 480 414 554 431 q 585 348 555 396 q 616 194 616 300 l 616 82 q 644 -44 616 -14 q 769 -74 673 -74 l 816 -74 "},"X":{"x_min":26,"x_max":1043,"ha":1071,"o":"m 691 517 l 1043 0 l 770 0 l 534 346 l 299 0 l 26 0 l 377 517 l 40 1013 l 312 1013 l 534 686 l 755 1013 l 1029 1013 l 691 517 "},"ô":{"x_min":60,"x_max":895,"ha":954,"o":"m 478 604 q 355 546 397 604 q 313 379 313 488 q 355 211 313 269 q 478 154 397 154 q 599 211 557 154 q 642 379 642 269 q 599 546 642 488 q 478 604 557 604 m 478 778 q 784 672 674 778 q 895 379 895 566 q 784 85 895 191 q 478 -20 674 -20 q 170 85 281 -20 q 60 379 60 191 q 170 672 60 566 q 478 778 281 778 m 396 1111 l 560 1111 l 734 856 l 613 856 l 478 1008 l 343 856 l 223 856 l 396 1111 "},"¼":{"x_min":67,"x_max":1329.078125,"ha":1438,"o":"m 1080 434 l 918 215 l 1080 215 l 1080 434 m 1067 566 l 1236 566 l 1236 215 l 1329 215 l 1329 109 l 1236 109 l 1236 0 l 1080 0 l 1080 109 l 814 109 l 814 223 l 1067 566 m 497 -20 l 346 -20 l 979 1031 l 1131 1031 l 497 -20 m 80 559 l 220 559 l 220 912 l 67 877 l 67 986 l 222 1019 l 376 1019 l 376 559 l 514 559 l 514 453 l 80 453 l 80 559 "},"#":{"x_min":94,"x_max":1069,"ha":1164,"o":"m 617 997 l 552 736 l 731 736 l 797 997 l 946 997 l 881 736 l 1069 736 l 1069 592 l 845 592 l 798 406 l 991 406 l 991 260 l 763 260 l 698 0 l 548 0 l 613 260 l 434 260 l 369 0 l 218 0 l 283 260 l 94 260 l 94 406 l 316 406 l 363 592 l 171 592 l 171 736 l 401 736 l 466 997 l 617 997 m 694 592 l 515 592 l 467 406 l 646 406 l 694 592 "},"Ê":{"x_min":128,"x_max":848,"ha":949,"o":"m 128 1013 l 833 1013 l 833 816 l 389 816 l 389 627 l 807 627 l 807 430 l 389 430 l 389 197 l 848 197 l 848 0 l 128 0 l 128 1013 m 365 1288 l 573 1288 l 725 1109 l 604 1109 l 469 1218 l 334 1109 l 214 1109 l 365 1288 "},")":{"x_min":111,"x_max":516,"ha":635,"o":"m 111 -183 q 241 132 198 -21 q 285 436 285 286 q 241 739 285 586 q 111 1054 198 893 l 312 1054 q 466 735 416 887 q 516 434 516 583 q 466 135 516 286 q 312 -183 416 -15 l 111 -183 "},"Ꙕ":{"x_min":76.640625,"x_max":1502.9375,"ha":1630,"o":"m 1112 604 q 1241 604 1112 604 l 1241 1012 l 1502 1012 l 1502 0 l 1241 0 l 1241 406 l 1112 406 q 967 108 1093 236 q 597 -19 841 -19 q 215 120 353 -19 q 76 505 76 259 q 215 891 76 751 q 597 1030 353 1030 q 967 902 841 1030 q 1112 604 1093 774 m 597 841 q 411 753 477 841 q 345 505 345 665 q 411 257 345 345 q 597 169 477 169 q 782 257 716 169 q 848 505 848 345 q 782 753 848 665 q 597 841 716 841 "},"Å":{"x_min":7,"x_max":1068,"ha":1075,"o":"m 699 992 l 1068 0 l 805 0 l 741 184 l 334 184 l 269 0 l 7 0 l 375 992 q 352 1041 359 1015 q 345 1095 345 1066 q 401 1232 345 1175 q 537 1289 458 1289 q 673 1232 616 1289 q 730 1095 730 1175 q 722 1038 730 1063 q 699 992 715 1012 m 449 1096 q 475 1033 449 1059 q 537 1007 501 1007 q 599 1033 573 1007 q 626 1096 626 1059 q 599 1158 626 1132 q 537 1185 573 1185 q 475 1158 501 1185 q 449 1096 449 1132 m 399 372 l 675 372 l 537 774 l 399 372 "},"ø":{"x_min":53.1875,"x_max":896.359375,"ha":954,"o":"m 580 566 q 535 594 561 585 q 478 604 510 604 q 355 546 397 604 q 313 379 313 488 q 315 329 313 351 q 322 288 317 307 l 580 566 m 371 194 q 419 164 392 174 q 478 154 445 154 q 599 211 557 154 q 642 379 642 269 q 639 430 642 408 q 632 473 637 453 l 371 194 m 151 107 q 83 227 106 160 q 60 379 60 295 q 170 672 60 566 q 478 778 281 778 q 611 763 550 778 q 722 718 671 748 l 822 825 l 896 756 l 800 655 q 871 532 848 601 q 895 378 895 464 q 784 85 895 191 q 478 -20 674 -20 q 343 -4 405 -20 q 229 41 281 10 l 129 -64 l 53 0 l 151 107 "},"â":{"x_min":60,"x_max":828,"ha":937,"o":"m 457 342 q 343 316 381 342 q 305 239 305 290 q 335 167 305 193 q 421 141 366 141 q 536 190 489 141 q 583 314 583 239 l 583 342 l 457 342 m 828 433 l 828 0 l 583 0 l 583 112 q 473 11 534 42 q 324 -20 412 -20 q 133 48 207 -20 q 60 227 60 117 q 151 423 60 361 q 440 486 243 486 l 583 486 l 583 505 q 537 590 583 563 q 395 617 492 617 q 250 601 317 617 q 126 555 183 586 l 126 740 q 282 768 204 758 q 440 778 361 778 q 736 696 645 778 q 828 433 828 615 m 391 1111 l 555 1111 l 729 856 l 608 856 l 473 1008 l 338 856 l 218 856 l 391 1111 "},"}":{"x_min":174,"x_max":816,"ha":989,"o":"m 174 -74 l 221 -74 q 345 -44 316 -74 q 374 82 374 -14 l 374 194 q 404 348 374 300 q 510 414 435 396 q 404 479 435 431 q 374 634 374 528 l 374 746 q 345 872 374 843 q 221 902 316 902 l 174 902 l 174 1055 l 321 1055 q 537 995 469 1055 q 605 805 605 936 l 605 666 q 641 525 605 564 q 774 486 678 486 l 816 486 l 816 335 l 774 335 q 641 295 678 335 q 605 153 605 255 l 605 23 q 537 -167 605 -107 q 321 -227 469 -227 l 174 -227 l 174 -74 "},"Ä":{"x_min":7,"x_max":1068,"ha":1075,"o":"m 741 184 l 333 184 l 269 0 l 7 0 l 381 1013 l 693 1013 l 1068 0 l 805 0 l 741 184 m 398 372 l 676 372 l 537 775 l 398 372 m 324 1288 l 483 1288 l 483 1121 l 324 1121 l 324 1288 m 592 1288 l 751 1288 l 751 1121 l 592 1121 l 592 1288 "},"Ꙥ":{"x_min":63.75,"x_max":1484.625,"ha":1523,"o":"m 63 0 l 63 197 q 270 328 236 216 q 305 821 305 440 l 305 1012 l 1484 1012 l 1484 815 l 1026 815 l 1026 0 l 765 0 l 765 815 l 566 815 l 566 753 q 500 209 566 381 q 63 0 434 37 "},"¸":{"x_min":177.3125,"x_max":485,"ha":695,"o":"m 408 0 q 466 -78 447 -42 q 485 -145 485 -113 q 443 -241 485 -210 q 315 -272 401 -272 q 247 -267 282 -272 q 178 -254 213 -263 l 177 -151 q 239 -166 211 -161 q 290 -172 267 -172 q 351 -156 329 -172 q 374 -113 374 -140 q 359 -68 374 -96 q 314 0 344 -40 l 408 0 "},"a":{"x_min":60,"x_max":828,"ha":937,"o":"m 457 342 q 343 316 381 342 q 305 239 305 290 q 335 167 305 193 q 421 141 366 141 q 536 190 489 141 q 583 314 583 239 l 583 342 l 457 342 m 828 433 l 828 0 l 583 0 l 583 112 q 473 11 534 42 q 324 -20 412 -20 q 133 48 207 -20 q 60 227 60 117 q 151 423 60 361 q 440 486 243 486 l 583 486 l 583 505 q 537 590 583 563 q 395 617 492 617 q 250 601 317 617 q 126 555 183 586 l 126 740 q 282 768 204 758 q 440 778 361 778 q 736 696 645 778 q 828 433 828 615 "},"=":{"x_min":147,"x_max":1016,"ha":1164,"o":"m 147 669 l 1016 669 l 1016 510 l 147 510 l 147 669 m 147 361 l 1016 361 l 1016 200 l 147 200 l 147 361 "},"N":{"x_min":128,"x_max":1035,"ha":1162,"o":"m 128 1013 l 419 1013 l 787 318 l 787 1013 l 1035 1013 l 1035 0 l 743 0 l 376 694 l 376 0 l 128 0 l 128 1013 "},"ꙕ":{"x_min":61.71875,"x_max":1233.6875,"ha":1350,"o":"m 1233 759 l 1233 0 l 990 0 l 990 305 l 891 305 q 776 77 877 174 q 478 -19 674 -19 q 171 86 282 -19 q 61 379 61 191 q 171 672 61 566 q 478 777 282 777 q 776 681 674 777 q 891 455 878 585 l 990 455 l 990 759 l 1233 759 m 478 604 q 356 546 398 604 q 314 379 314 488 q 356 211 314 269 q 478 153 398 153 q 601 211 558 153 q 643 379 643 269 q 601 546 643 488 q 478 604 558 604 "},"ú":{"x_min":109,"x_max":873,"ha":989,"o":"m 109 295 l 109 760 l 353 760 l 353 683 q 352 528 353 622 q 351 404 351 435 q 356 272 351 312 q 372 213 361 231 q 411 176 387 189 q 467 164 435 164 q 586 222 543 164 q 630 384 630 280 l 630 760 l 873 760 l 873 0 l 630 0 l 630 110 q 513 11 575 43 q 378 -20 452 -20 q 177 60 246 -20 q 109 295 109 141 m 603 1111 l 795 1111 l 544 856 l 412 856 l 603 1111 "},"2":{"x_min":110,"x_max":846,"ha":966,"o":"m 400 192 l 846 192 l 846 0 l 110 0 l 110 192 l 480 518 q 553 605 529 563 q 577 694 577 648 q 529 809 577 766 q 401 853 481 853 q 268 826 340 853 q 113 749 195 800 l 113 971 q 287 1015 201 1000 q 456 1031 373 1031 q 738 950 637 1031 q 839 727 839 870 q 796 573 839 645 q 616 381 753 502 l 400 192 "},"ü":{"x_min":109,"x_max":873,"ha":989,"o":"m 109 295 l 109 760 l 353 760 l 353 683 q 352 528 353 622 q 351 404 351 435 q 356 272 351 312 q 372 213 361 231 q 411 176 387 189 q 467 164 435 164 q 586 222 543 164 q 630 384 630 280 l 630 760 l 873 760 l 873 0 l 630 0 l 630 110 q 513 11 575 43 q 378 -20 452 -20 q 177 60 246 -20 q 109 295 109 141 m 278 1075 l 437 1075 l 437 908 l 278 908 l 278 1075 m 546 1075 l 705 1075 l 705 908 l 546 908 l 546 1075 "},"¯":{"x_min":134,"x_max":561,"ha":695,"o":"m 134 1055 l 561 1055 l 561 927 l 134 927 l 134 1055 "},"Z":{"x_min":62,"x_max":944,"ha":1007,"o":"m 78 1013 l 928 1013 l 928 854 l 385 197 l 944 197 l 944 0 l 62 0 l 62 158 l 604 816 l 78 816 l 78 1013 "},"u":{"x_min":109,"x_max":873,"ha":989,"o":"m 109 295 l 109 760 l 353 760 l 353 683 q 352 528 353 622 q 351 404 351 435 q 356 272 351 312 q 372 213 361 231 q 411 176 387 189 q 467 164 435 164 q 586 222 543 164 q 630 384 630 280 l 630 760 l 873 760 l 873 0 l 630 0 l 630 110 q 513 11 575 43 q 378 -20 452 -20 q 177 60 246 -20 q 109 295 109 141 "},"Ó":{"x_min":69,"x_max":1111,"ha":1181,"o":"m 590 842 q 404 753 470 842 q 339 505 339 665 q 404 257 339 345 q 590 169 470 169 q 776 257 710 169 q 842 505 842 345 q 776 753 842 665 q 590 842 710 842 m 590 1031 q 972 891 834 1031 q 1111 505 1111 751 q 972 119 1111 259 q 590 -20 834 -20 q 207 119 346 -20 q 69 505 69 259 q 207 891 69 751 q 590 1031 346 1031 m 608 1288 l 800 1288 l 606 1109 l 474 1109 l 608 1288 "},"k":{"x_min":117,"x_max":951,"ha":924,"o":"m 117 1055 l 360 1055 l 360 481 l 639 760 l 922 760 l 550 411 l 951 0 l 656 0 l 360 316 l 360 0 l 117 0 l 117 1055 "},"₯":{"x_min":127.5,"x_max":1731.5,"ha":1933,"o":"m 1268 -309 l 1122 -280 l 1232 207 q 1297 385 1257 318 q 1388 486 1334 448 q 1511 524 1439 524 q 1604 505 1561 524 q 1687 443 1658 482 q 1731 278 1731 383 q 1698 129 1731 195 q 1605 15 1658 49 q 1478 -19 1551 -19 q 1401 -1 1436 -19 q 1349 56 1375 13 l 1268 -309 m 1426 320 q 1397 200 1397 269 q 1412 134 1397 160 q 1462 101 1433 101 q 1553 147 1518 101 q 1591 281 1591 199 q 1573 363 1591 335 q 1513 392 1554 392 q 1426 320 1467 392 m 398 283 q 410 329 404 303 l 527 879 q 506 870 516 875 q 466 838 484 857 q 432 777 451 819 l 288 822 q 347 921 304 870 q 426 987 385 965 q 644 1030 507 1030 q 892 987 783 1030 q 1058 873 995 946 q 1144 724 1116 807 q 1171 553 1171 640 q 1152 381 1171 476 q 1090 208 1135 293 q 1033 122 1066 161 q 959 51 1001 83 q 861 0 912 16 q 746 -19 796 -19 q 672 -13 704 -19 q 604 8 639 -6 q 550 36 568 25 l 507 61 q 490 37 499 48 q 330 -19 435 -19 q 183 24 236 -19 q 127 134 127 69 q 177 249 127 198 q 310 294 222 294 q 398 283 360 294 m 706 887 l 586 327 q 556 206 570 252 l 583 187 q 665 138 638 150 q 732 122 699 122 q 843 164 797 122 q 927 279 891 208 q 970 415 952 330 q 985 548 985 484 q 967 672 985 609 q 914 777 948 734 q 706 887 832 878 m 354 147 q 308 168 333 168 q 280 158 289 168 q 271 139 271 149 q 285 112 271 122 q 317 104 297 104 q 354 147 341 104 "},"Ù":{"x_min":128,"x_max":1001,"ha":1128,"o":"m 128 1013 l 389 1013 l 389 405 q 430 225 389 279 q 564 172 471 172 q 698 225 657 172 q 740 405 740 279 l 740 1013 l 1001 1013 l 1001 405 q 893 85 1001 190 q 564 -20 785 -20 q 235 85 343 -20 q 128 405 128 190 l 128 1013 m 512 1288 l 647 1109 l 514 1109 l 321 1288 l 512 1288 "},"€":{"x_min":-27,"x_max":873,"ha":966,"o":"m 873 55 q 738 0 808 18 q 592 -20 668 -20 q 292 68 414 -20 q 120 324 171 157 l -27 324 l 33 456 l 99 456 q 98 475 98 465 q 98 505 98 486 q 98 535 98 525 q 99 557 98 546 l -27 557 l 33 689 l 120 689 q 293 943 172 855 q 592 1031 414 1031 q 738 1012 668 1031 q 873 955 808 993 l 873 747 q 755 826 818 799 q 626 853 693 853 q 479 811 540 853 q 388 689 418 769 l 754 689 l 695 557 l 361 557 q 359 533 359 546 q 359 497 359 521 q 359 478 359 488 q 360 456 359 467 l 651 456 l 590 324 l 388 324 q 481 199 422 241 q 626 158 540 158 q 754 184 693 158 q 873 265 816 211 l 873 55 "},"₦":{"x_min":59.6875,"x_max":1102.796875,"ha":1162,"o":"m 707 428 l 707 583 l 641 583 l 693 428 l 707 428 m 59 297 l 59 428 l 207 428 l 207 583 l 59 583 l 59 715 l 207 715 l 207 1012 l 499 1012 l 598 715 l 707 715 l 707 1012 l 954 1012 l 954 715 l 1102 715 l 1102 583 l 954 583 l 954 428 l 1102 428 l 1102 297 l 954 297 l 954 0 l 663 0 l 564 297 l 455 297 l 455 0 l 207 0 l 207 297 l 59 297 m 455 583 l 455 428 l 520 428 l 469 583 l 455 583 "},"¢":{"x_min":118,"x_max":787,"ha":966,"o":"m 476 582 q 397 502 423 552 q 371 379 371 452 q 397 254 371 304 q 476 175 423 204 l 476 582 m 787 737 l 787 539 q 688 588 736 571 q 596 605 640 605 l 586 605 l 586 154 q 697 171 646 154 q 787 220 748 188 l 787 21 q 681 -9 730 1 q 592 -20 632 -20 l 586 -20 l 586 -212 l 476 -212 l 476 -17 q 208 112 298 9 q 118 390 118 214 q 209 654 118 555 q 476 777 301 753 l 476 972 l 586 972 l 586 777 q 684 765 634 775 q 787 737 734 755 "},"ß":{"x_min":117,"x_max":939,"ha":999,"o":"m 117 754 q 208 980 117 905 q 485 1055 300 1055 q 754 978 663 1055 q 845 754 845 902 l 845 706 q 693 673 742 699 q 645 596 645 646 q 661 552 645 571 q 740 497 678 532 l 787 472 q 902 371 866 429 q 939 235 939 314 q 861 43 939 107 q 627 -20 783 -20 q 536 -11 583 -20 q 439 13 489 -3 l 439 178 q 516 150 477 159 q 591 141 555 141 q 670 165 640 141 q 700 228 700 189 q 681 283 700 260 q 596 343 662 306 l 549 370 q 461 449 489 403 q 433 556 433 494 q 479 688 433 634 q 625 775 526 741 q 591 863 624 833 q 497 894 559 894 q 394 856 429 894 q 360 745 360 819 l 360 0 l 117 0 l 117 754 "},"é":{"x_min":60,"x_max":875,"ha":942,"o":"m 875 382 l 875 313 l 308 313 q 369 184 316 227 q 517 141 422 141 q 674 163 593 141 q 839 233 754 186 l 839 46 q 666 -3 752 13 q 494 -20 580 -20 q 174 84 288 -20 q 60 379 60 189 q 172 671 60 564 q 481 778 284 778 q 767 670 660 778 q 875 382 875 562 m 625 463 q 584 574 625 532 q 479 617 544 617 q 365 577 409 617 q 310 463 321 537 l 625 463 m 586 1111 l 778 1111 l 527 856 l 395 856 l 586 1111 "},"s":{"x_min":72,"x_max":761,"ha":827,"o":"m 710 736 l 710 552 q 559 600 631 584 q 422 617 486 617 q 319 599 353 617 q 286 546 286 582 q 311 501 286 517 q 402 478 336 486 l 445 472 q 696 394 632 448 q 761 223 761 339 q 671 41 761 102 q 404 -20 582 -20 q 249 -8 329 -20 q 84 28 168 4 l 84 212 q 232 158 156 176 q 387 141 308 141 q 494 160 458 141 q 530 219 530 180 q 505 268 530 252 q 406 292 480 284 l 363 298 q 137 373 202 318 q 72 540 72 428 q 154 719 72 661 q 408 778 237 778 q 549 767 475 778 q 710 736 623 757 "},"B":{"x_min":128,"x_max":962,"ha":1059,"o":"m 534 621 q 628 648 596 621 q 660 728 660 675 q 628 807 660 780 q 534 835 596 835 l 389 835 l 389 621 l 534 621 m 542 178 q 661 211 621 178 q 701 311 701 244 q 661 410 701 377 q 542 443 622 443 l 389 443 l 389 178 l 542 178 m 785 542 q 915 451 869 517 q 962 290 962 386 q 863 71 962 143 q 561 0 764 0 l 128 0 l 128 1013 l 520 1013 q 826 949 731 1013 q 921 745 921 885 q 886 619 921 671 q 785 542 851 567 "},"?":{"x_min":96,"x_max":716,"ha":806,"o":"m 481 341 l 236 341 l 236 374 q 258 473 236 430 q 352 583 280 516 l 396 622 q 453 689 435 658 q 471 751 471 720 q 438 826 471 799 q 347 853 405 853 q 228 830 292 853 q 96 763 165 807 l 96 976 q 245 1017 178 1004 q 376 1031 313 1031 q 629 963 542 1031 q 716 766 716 895 q 689 647 716 699 q 599 534 663 594 l 555 495 q 495 427 509 453 q 481 371 481 402 l 481 341 m 236 241 l 481 241 l 481 0 l 236 0 l 236 241 "},"H":{"x_min":128,"x_max":1035,"ha":1162,"o":"m 128 1013 l 389 1013 l 389 627 l 774 627 l 774 1013 l 1035 1013 l 1035 0 l 774 0 l 774 430 l 389 430 l 389 0 l 128 0 l 128 1013 "},"î":{"x_min":-17,"x_max":494,"ha":476,"o":"m 117 760 l 360 760 l 360 0 l 117 0 l 117 760 m 156 1111 l 320 1111 l 494 856 l 373 856 l 238 1008 l 103 856 l -17 856 l 156 1111 "},"c":{"x_min":60,"x_max":731,"ha":823,"o":"m 731 736 l 731 538 q 631 587 681 571 q 528 604 581 604 q 369 544 426 604 q 313 379 313 485 q 369 213 313 272 q 528 154 426 154 q 636 170 585 154 q 731 221 687 187 l 731 22 q 615 -9 674 1 q 497 -20 556 -20 q 176 85 292 -20 q 60 379 60 191 q 176 672 60 566 q 497 778 292 778 q 615 767 557 778 q 731 736 673 757 "},"¶":{"x_min":87,"x_max":762,"ha":884,"o":"m 409 1013 l 762 1013 l 762 -134 l 633 -134 l 633 913 l 505 913 l 505 -134 l 376 -134 l 376 441 q 162 532 237 457 q 87 727 87 606 q 175 934 87 855 q 409 1013 263 1013 "},"¥":{"x_min":17,"x_max":950,"ha":966,"o":"m 921 282 l 612 282 l 612 0 l 354 0 l 354 282 l 46 282 l 46 414 l 354 414 l 354 458 l 320 517 l 46 517 l 46 647 l 244 647 l 17 1013 l 287 1013 l 483 699 l 678 1013 l 950 1013 l 722 647 l 921 647 l 921 517 l 645 517 l 612 458 l 612 414 l 921 414 l 921 282 "},"(":{"x_min":119,"x_max":524,"ha":635,"o":"m 524 -183 l 322 -183 q 168 135 218 -15 q 119 434 119 286 q 168 735 119 583 q 322 1054 218 887 l 524 1054 q 393 739 437 893 q 350 436 350 586 q 393 132 350 286 q 524 -183 436 -21 "},"U":{"x_min":128,"x_max":1001,"ha":1128,"o":"m 128 1013 l 389 1013 l 389 405 q 430 225 389 279 q 564 172 471 172 q 698 225 657 172 q 740 405 740 279 l 740 1013 l 1001 1013 l 1001 405 q 893 85 1001 190 q 564 -20 785 -20 q 235 85 343 -20 q 128 405 128 190 l 128 1013 "},"₠":{"x_min":52.90625,"x_max":1238.4375,"ha":1291,"o":"m 698 759 l 1226 759 l 1226 611 l 894 611 l 894 470 l 1207 470 l 1207 322 l 894 322 l 894 147 l 1238 147 l 1238 0 l 698 0 l 698 282 q 585 239 644 253 q 463 225 527 225 q 163 331 274 225 q 52 619 52 437 q 163 907 52 800 q 463 1013 274 1013 q 585 999 527 1013 q 698 956 644 984 l 698 799 q 591 854 644 836 q 480 871 538 871 q 315 804 375 871 q 255 619 255 737 q 315 434 255 501 q 480 367 375 367 q 591 384 538 367 q 698 438 644 401 l 698 759 "},"Ñ":{"x_min":128,"x_max":1035,"ha":1162,"o":"m 128 1013 l 419 1013 l 787 318 l 787 1013 l 1035 1013 l 1035 0 l 743 0 l 376 694 l 376 0 l 128 0 l 128 1013 m 558 1142 l 520 1166 q 513 1170 518 1167 q 463 1188 482 1188 q 428 1167 442 1188 q 415 1113 415 1147 l 415 1109 l 321 1109 q 321 1119 321 1112 q 322 1129 322 1126 q 358 1245 322 1201 q 453 1290 394 1290 q 504 1281 479 1290 q 555 1256 529 1272 l 595 1229 q 623 1215 610 1220 q 647 1210 636 1210 q 685 1230 672 1210 q 699 1290 699 1251 l 793 1290 q 792 1279 793 1285 q 792 1268 792 1272 q 755 1152 792 1196 q 660 1109 719 1109 q 610 1116 634 1109 q 558 1142 586 1123 "},"F":{"x_min":128,"x_max":833,"ha":949,"o":"m 128 1013 l 833 1013 l 833 816 l 389 816 l 389 627 l 807 627 l 807 430 l 389 430 l 389 0 l 128 0 l 128 1013 "},"­":{"x_min":75,"x_max":501,"ha":576,"o":"m 75 499 l 501 499 l 501 302 l 75 302 l 75 499 "},":":{"x_min":155,"x_max":400,"ha":555,"o":"m 155 760 l 400 760 l 400 498 l 155 498 l 155 760 m 155 262 l 400 262 l 400 0 l 155 0 l 155 262 "},"Ꙍ":{"x_min":78.671875,"x_max":1872.578125,"ha":1952,"o":"m 1509 -19 q 1350 23 1443 -19 q 1179 103 1350 23 q 975 147 1072 147 q 771 103 878 147 q 602 23 771 103 q 442 -19 507 -19 q 160 94 254 -19 q 78 365 78 195 q 135 663 78 510 q 274 908 190 813 l 491 908 q 385 681 438 851 q 328 364 328 501 q 442 178 328 178 q 602 210 524 178 q 745 271 674 240 q 975 303 843 303 q 1205 271 1107 303 q 1349 210 1277 240 q 1509 178 1427 178 q 1622 367 1622 178 q 1568 680 1622 504 q 1460 908 1515 848 l 1676 908 q 1815 663 1760 813 q 1872 364 1872 509 q 1791 94 1872 194 q 1509 -19 1697 -19 "},"Û":{"x_min":128,"x_max":1001,"ha":1128,"o":"m 128 1013 l 389 1013 l 389 405 q 430 225 389 279 q 564 172 471 172 q 698 225 657 172 q 740 405 740 279 l 740 1013 l 1001 1013 l 1001 405 q 893 85 1001 190 q 564 -20 785 -20 q 235 85 343 -20 q 128 405 128 190 l 128 1013 m 459 1288 l 668 1288 l 819 1109 l 699 1109 l 564 1218 l 429 1109 l 308 1109 l 459 1288 "},"*":{"x_min":28,"x_max":698,"ha":726,"o":"m 698 825 l 474 708 l 698 590 l 646 495 l 421 619 l 421 386 l 306 386 l 306 619 l 79 495 l 28 590 l 254 708 l 28 825 l 79 921 l 306 797 l 306 1031 l 421 1031 l 421 797 l 646 921 l 698 825 "},"₫":{"x_min":42,"x_max":961,"ha":966,"o":"m 613 648 l 613 839 l 392 839 l 392 978 l 613 978 l 613 1055 l 857 1055 l 857 978 l 961 978 l 961 839 l 857 839 l 857 0 l 613 0 l 613 110 q 502 11 562 42 q 362 -20 442 -20 q 132 91 222 -20 q 42 379 42 203 q 132 666 42 554 q 362 778 222 778 q 502 746 441 778 q 613 648 562 714 m 453 156 q 572 213 531 156 q 613 379 613 270 q 572 544 613 487 q 453 602 531 602 q 334 544 375 602 q 294 379 294 487 q 334 213 294 270 q 453 156 375 156 m 253 -125 l 680 -125 l 680 -253 l 253 -253 l 253 -125 "},"°":{"x_min":121,"x_max":573,"ha":695,"o":"m 347 930 q 264 896 298 930 q 231 813 231 862 q 264 731 231 764 q 347 698 298 698 q 430 731 396 698 q 464 813 464 765 q 429 896 464 862 q 347 930 395 930 m 347 1040 q 433 1022 392 1040 q 507 973 475 1005 q 556 900 539 940 q 573 813 573 859 q 556 726 573 767 q 509 655 539 685 q 434 605 476 622 q 346 588 392 588 q 185 652 250 588 q 121 813 121 717 q 186 974 121 909 q 347 1040 251 1040 "},"V":{"x_min":7,"x_max":1068,"ha":1075,"o":"m 7 1013 l 269 1013 l 537 265 l 805 1013 l 1068 1013 l 693 0 l 381 0 l 7 1013 "},"å":{"x_min":60,"x_max":828,"ha":937,"o":"m 457 342 q 343 316 381 342 q 305 239 305 290 q 335 167 305 193 q 421 141 366 141 q 536 190 489 141 q 583 314 583 239 l 583 342 l 457 342 m 828 433 l 828 0 l 583 0 l 583 112 q 473 11 534 42 q 324 -20 412 -20 q 133 48 207 -20 q 60 227 60 117 q 151 423 60 361 q 440 486 243 486 l 583 486 l 583 505 q 537 590 583 563 q 395 617 492 617 q 250 601 317 617 q 126 555 183 586 l 126 740 q 282 768 204 758 q 440 778 361 778 q 736 696 645 778 q 828 433 828 615 m 384 1040 q 410 976 384 1002 q 473 951 436 951 q 537 977 511 951 q 563 1040 563 1003 q 536 1103 563 1077 q 473 1130 510 1130 q 409 1103 435 1130 q 384 1040 384 1077 m 280 1040 q 336 1177 280 1120 q 473 1234 393 1234 q 610 1177 553 1234 q 667 1040 667 1120 q 610 903 667 960 q 473 847 553 847 q 336 903 393 847 q 280 1040 280 960 "}," ":{"x_min":0,"x_max":0,"ha":484},"0":{"x_min":66,"x_max":900,"ha":966,"o":"m 639 507 q 603 775 639 697 q 483 853 567 853 q 363 775 399 853 q 327 507 327 697 q 363 236 327 315 q 483 158 399 158 q 602 236 566 158 q 639 507 639 315 m 900 505 q 791 116 900 253 q 483 -20 682 -20 q 174 116 283 -20 q 66 505 66 253 q 174 894 66 757 q 483 1031 283 1031 q 791 894 682 1031 q 900 505 900 757 "},"¾":{"x_min":71,"x_max":1329.078125,"ha":1438,"o":"m 1080 434 l 918 215 l 1080 215 l 1080 434 m 1067 566 l 1236 566 l 1236 215 l 1329 215 l 1329 109 l 1236 109 l 1236 0 l 1080 0 l 1080 109 l 814 109 l 814 223 l 1067 566 m 497 -20 l 346 -20 l 979 1031 l 1131 1031 l 497 -20 m 411 759 q 508 710 473 747 q 543 617 543 672 q 475 486 543 530 q 272 443 408 443 q 167 450 217 443 q 71 473 117 458 l 71 592 q 159 554 115 567 q 243 542 202 542 q 342 563 307 542 q 378 625 378 585 q 341 689 378 668 q 228 710 305 710 l 178 710 l 178 803 l 235 803 q 332 819 301 803 q 363 869 363 835 q 336 915 363 900 q 255 931 309 931 q 178 922 220 931 q 89 895 136 913 l 89 1007 q 184 1024 133 1018 q 294 1031 235 1031 q 467 993 407 1031 q 528 883 528 955 q 497 804 528 836 q 411 759 466 771 "},"@":{"x_min":92,"x_max":1291,"ha":1389,"o":"m 564 366 q 599 234 564 282 q 696 186 635 186 q 792 234 756 186 q 828 366 828 283 q 791 496 828 448 q 694 544 755 544 q 599 496 635 544 q 564 366 564 448 m 842 161 q 776 86 821 113 q 671 60 731 60 q 481 144 554 60 q 409 364 409 228 q 482 585 409 500 q 671 670 555 670 q 776 642 731 670 q 842 567 821 615 l 842 656 l 984 656 l 984 186 q 1115 267 1067 198 q 1164 441 1164 335 q 1144 568 1164 509 q 1084 677 1124 628 q 923 805 1020 760 q 714 850 827 850 q 564 829 635 850 q 431 768 492 808 q 274 596 330 702 q 219 368 219 491 q 255 179 219 267 q 360 23 291 90 q 515 -78 427 -43 q 703 -113 603 -113 q 874 -81 788 -113 q 1019 5 959 -49 l 1092 -104 q 907 -205 1007 -170 q 704 -241 807 -241 q 467 -196 578 -241 q 269 -67 356 -152 q 137 128 182 17 q 92 368 92 240 q 138 604 92 492 q 269 800 184 715 q 468 930 355 884 q 704 977 582 977 q 980 919 856 977 q 1187 751 1104 861 q 1264 607 1238 685 q 1291 444 1291 530 q 1180 159 1291 260 q 868 57 1069 57 l 842 57 l 842 161 "},"ö":{"x_min":60,"x_max":895,"ha":954,"o":"m 478 604 q 355 546 397 604 q 313 379 313 488 q 355 211 313 269 q 478 154 397 154 q 599 211 557 154 q 642 379 642 269 q 599 546 642 488 q 478 604 557 604 m 478 778 q 784 672 674 778 q 895 379 895 566 q 784 85 895 191 q 478 -20 674 -20 q 170 85 281 -20 q 60 379 60 191 q 170 672 60 566 q 478 778 281 778 m 264 1075 l 423 1075 l 423 908 l 264 908 l 264 1075 m 532 1075 l 691 1075 l 691 908 l 532 908 l 532 1075 "},"i":{"x_min":117,"x_max":360,"ha":476,"o":"m 117 760 l 360 760 l 360 0 l 117 0 l 117 760 m 117 1055 l 360 1055 l 360 858 l 117 858 l 117 1055 "},"₳":{"x_min":6.78125,"x_max":959.6875,"ha":966,"o":"m 34 475 l 34 607 l 215 607 l 354 1012 l 611 1012 l 750 607 l 931 607 l 931 475 l 796 475 l 830 374 l 931 374 l 931 242 l 876 242 l 959 0 l 724 0 l 640 242 l 325 242 l 242 0 l 6 0 l 90 242 l 34 242 l 34 374 l 135 374 l 170 475 l 34 475 m 405 475 l 370 374 l 595 374 l 560 475 l 405 475 m 451 607 l 515 607 l 483 701 l 451 607 "},"Õ":{"x_min":69,"x_max":1111,"ha":1181,"o":"m 590 842 q 404 753 470 842 q 339 505 339 665 q 404 257 339 345 q 590 169 470 169 q 776 257 710 169 q 842 505 842 345 q 776 753 842 665 q 590 842 710 842 m 590 1031 q 972 891 834 1031 q 1111 505 1111 751 q 972 119 1111 259 q 590 -20 834 -20 q 207 119 346 -20 q 69 505 69 259 q 207 891 69 751 q 590 1031 346 1031 m 591 1142 l 553 1166 q 546 1170 551 1167 q 496 1188 515 1188 q 461 1167 475 1188 q 447 1113 447 1147 l 447 1109 l 354 1109 q 354 1119 354 1112 q 355 1129 355 1126 q 391 1245 355 1201 q 486 1290 427 1290 q 536 1281 511 1290 q 588 1256 562 1272 l 628 1229 q 656 1215 642 1220 q 680 1210 669 1210 q 718 1230 705 1210 q 731 1290 731 1251 l 826 1290 q 825 1279 826 1285 q 824 1268 824 1272 q 788 1152 824 1196 q 692 1109 752 1109 q 643 1116 667 1109 q 591 1142 619 1123 "},"þ":{"x_min":117,"x_max":932,"ha":994,"o":"m 360 110 l 360 -289 l 117 -289 l 117 1055 l 360 1055 l 360 648 q 471 746 410 714 q 611 778 532 778 q 841 666 751 778 q 932 379 932 554 q 841 91 932 203 q 611 -20 751 -20 q 471 11 532 -20 q 360 110 410 43 m 521 602 q 401 544 443 602 q 360 379 360 487 q 401 213 360 270 q 521 156 443 156 q 640 213 599 156 q 681 379 681 270 q 640 544 681 487 q 521 602 599 602 "},"]":{"x_min":94,"x_max":516,"ha":635,"o":"m 516 -183 l 94 -183 l 94 -30 l 285 -30 l 285 902 l 94 902 l 94 1055 l 516 1055 l 516 -183 "},"m":{"x_min":115,"x_max":1337,"ha":1447,"o":"m 820 633 q 929 740 866 703 q 1069 778 993 778 q 1268 697 1200 778 q 1337 462 1337 616 l 1337 0 l 1093 0 l 1093 396 q 1094 414 1093 405 q 1094 441 1094 424 q 1070 558 1094 522 q 993 595 1046 595 q 887 538 924 595 q 848 373 849 481 l 848 0 l 604 0 l 604 396 q 582 558 604 522 q 504 595 560 595 q 397 537 435 595 q 359 373 359 480 l 359 0 l 115 0 l 115 760 l 359 760 l 359 648 q 461 745 403 712 q 589 778 519 778 q 728 739 668 778 q 820 633 789 701 "},"ꙅ":{"x_min":21.03125,"x_max":710.09375,"ha":827,"o":"m 71 735 q 232 767 158 757 q 373 777 306 777 q 627 719 544 777 q 710 540 710 661 q 644 373 710 428 q 417 298 579 318 l 375 293 q 276 268 301 284 q 251 219 251 252 q 287 161 251 181 q 394 141 323 141 q 549 159 473 141 q 698 212 626 177 l 698 27 q 533 -8 613 4 q 377 -19 453 -19 q 110 41 200 -19 q 21 223 21 102 q 85 394 21 339 q 336 472 149 448 l 379 478 q 470 501 444 485 q 495 545 495 516 q 462 599 495 581 q 359 616 428 616 q 222 600 295 616 q 71 551 149 583 l 71 735 "},"₥":{"x_min":115.296875,"x_max":1337.453125,"ha":1447,"o":"m 552 -128 l 436 -128 l 604 207 l 604 396 q 582 558 604 521 q 505 594 560 594 q 397 537 434 594 q 359 373 359 479 l 359 0 l 115 0 l 115 759 l 359 759 l 359 648 q 462 745 404 713 q 590 777 519 777 q 729 739 668 777 q 819 636 787 704 l 945 888 l 1062 888 l 1002 770 q 1069 777 1036 777 q 1268 697 1200 777 q 1337 462 1337 616 l 1337 0 l 1093 0 l 1093 396 l 1094 413 l 1094 441 q 1070 558 1094 521 q 994 594 1047 594 q 887 537 925 594 l 876 518 q 848 373 849 462 l 848 0 l 616 0 l 552 -128 "},"8":{"x_min":85,"x_max":881,"ha":966,"o":"m 484 453 q 371 412 410 453 q 332 298 332 372 q 371 183 332 223 q 484 144 410 144 q 595 183 556 144 q 634 298 634 223 q 595 413 634 373 q 484 453 556 453 m 293 538 q 153 624 200 566 q 107 768 107 682 q 202 963 107 896 q 483 1031 298 1031 q 763 964 667 1031 q 859 768 859 897 q 811 624 859 682 q 672 538 764 566 q 828 446 775 510 q 881 284 881 382 q 780 56 881 133 q 484 -20 680 -20 q 185 56 286 -20 q 85 284 85 133 q 137 446 85 382 q 293 538 190 510 m 354 741 q 387 648 354 681 q 483 616 421 616 q 577 648 544 616 q 611 741 611 681 q 577 834 611 802 q 483 867 544 867 q 387 834 421 867 q 354 741 354 801 "},"₵":{"x_min":99.703125,"x_max":873.546875,"ha":966,"o":"m 873 55 q 739 0 809 18 q 661 -15 700 -10 l 661 -204 l 551 -204 l 551 -18 q 293 69 410 -8 q 99 455 99 196 q 293 842 99 704 q 551 928 401 919 l 551 1055 l 661 1055 l 661 925 q 737 910 700 921 q 872 854 808 891 l 872 644 q 755 724 817 697 q 661 749 709 744 l 661 160 q 755 184 710 164 q 873 265 816 211 l 873 55 m 551 166 l 551 742 q 478 709 511 732 q 360 455 360 626 q 481 199 360 290 q 551 166 511 177 "},"R":{"x_min":128,"x_max":1042,"ha":1070,"o":"m 498 564 q 616 594 580 564 q 652 695 652 625 q 616 794 652 764 q 498 824 580 824 l 389 824 l 389 564 l 498 564 m 389 384 l 389 0 l 128 0 l 128 1013 l 526 1013 q 819 945 726 1013 q 913 733 913 878 q 864 568 913 633 q 718 474 816 504 q 814 418 772 461 q 900 288 856 375 l 1042 0 l 763 0 l 640 252 q 564 356 603 328 q 462 384 526 384 l 389 384 "},"ꙭ":{"x_min":59.6875,"x_max":1476.484375,"ha":1536,"o":"m 937 512 l 1181 512 l 1181 250 l 937 250 l 937 512 m 355 512 l 599 512 l 599 250 l 355 250 l 355 512 m 478 604 q 355 546 397 604 q 312 379 312 488 q 355 211 312 269 q 478 153 397 153 q 599 211 557 153 q 641 379 641 269 q 599 546 641 488 q 478 604 557 604 m 1060 777 q 1366 672 1256 777 q 1476 379 1476 566 q 1366 86 1476 191 q 1060 -19 1256 -19 q 768 71 876 -19 q 478 -19 660 -19 q 170 86 281 -19 q 59 379 59 191 q 170 672 59 566 q 478 777 281 777 q 768 686 660 777 q 1060 777 876 777 m 1060 604 q 936 546 979 604 q 894 379 894 488 q 936 211 894 269 q 1060 153 979 153 q 1181 211 1139 153 q 1223 379 1223 269 q 1181 546 1223 488 q 1060 604 1139 604 "},"á":{"x_min":60,"x_max":828,"ha":937,"o":"m 457 342 q 343 316 381 342 q 305 239 305 290 q 335 167 305 193 q 421 141 366 141 q 536 190 489 141 q 583 314 583 239 l 583 342 l 457 342 m 828 433 l 828 0 l 583 0 l 583 112 q 473 11 534 42 q 324 -20 412 -20 q 133 48 207 -20 q 60 227 60 117 q 151 423 60 361 q 440 486 243 486 l 583 486 l 583 505 q 537 590 583 563 q 395 617 492 617 q 250 601 317 617 q 126 555 183 586 l 126 740 q 282 768 204 758 q 440 778 361 778 q 736 696 645 778 q 828 433 828 615 m 565 1111 l 757 1111 l 506 856 l 374 856 l 565 1111 "},"×":{"x_min":174,"x_max":991,"ha":1164,"o":"m 991 729 l 696 434 l 991 141 l 877 28 l 582 320 l 288 28 l 174 141 l 468 434 l 174 729 l 288 843 l 582 548 l 877 843 l 991 729 "},"o":{"x_min":60,"x_max":895,"ha":954,"o":"m 478 604 q 355 546 397 604 q 313 379 313 488 q 355 211 313 269 q 478 154 397 154 q 599 211 557 154 q 642 379 642 269 q 599 546 642 488 q 478 604 557 604 m 478 778 q 784 672 674 778 q 895 379 895 566 q 784 85 895 191 q 478 -20 674 -20 q 170 85 281 -20 q 60 379 60 191 q 170 672 60 566 q 478 778 281 778 "},"5":{"x_min":107,"x_max":869,"ha":966,"o":"m 147 1013 l 796 1013 l 796 821 l 355 821 l 355 664 q 415 676 384 672 q 477 681 445 681 q 765 588 662 681 q 869 330 869 495 q 756 72 869 165 q 445 -20 644 -20 q 274 -3 359 -20 q 107 47 190 13 l 107 253 q 263 181 189 205 q 403 158 338 158 q 553 204 498 158 q 608 330 608 251 q 553 456 608 410 q 403 503 498 503 q 283 488 347 503 q 147 443 220 473 l 147 1013 "},"₩":{"x_min":18.3125,"x_max":1511.765625,"ha":1532,"o":"m 120 678 l 101 758 l 18 758 l 18 857 l 78 857 l 41 1012 l 291 1012 l 328 857 l 603 857 l 640 1012 l 891 1012 l 928 857 l 1203 857 l 1240 1012 l 1488 1012 l 1452 857 l 1511 857 l 1511 758 l 1429 758 l 1410 678 l 1511 678 l 1511 579 l 1386 579 l 1249 0 l 948 0 l 810 579 l 720 579 l 583 0 l 282 0 l 144 579 l 18 579 l 18 678 l 120 678 m 994 579 l 1065 276 l 1137 579 l 994 579 m 951 758 l 970 678 l 1161 678 l 1180 758 l 951 758 m 394 579 l 466 276 l 537 579 l 394 579 m 762 758 l 743 678 l 786 678 l 767 758 l 762 758 m 352 758 l 370 678 l 561 678 l 580 758 l 352 758 "},"õ":{"x_min":60,"x_max":895,"ha":954,"o":"m 478 604 q 355 546 397 604 q 313 379 313 488 q 355 211 313 269 q 478 154 397 154 q 599 211 557 154 q 642 379 642 269 q 599 546 642 488 q 478 604 557 604 m 478 778 q 784 672 674 778 q 895 379 895 566 q 784 85 895 191 q 478 -20 674 -20 q 170 85 281 -20 q 60 379 60 191 q 170 672 60 566 q 478 778 281 778 m 478 924 l 441 949 q 434 953 438 951 q 385 975 402 975 q 348 953 361 975 q 335 892 335 932 l 335 887 l 241 887 q 275 1029 241 979 q 374 1080 310 1080 q 423 1070 398 1080 q 476 1041 448 1061 l 517 1012 q 545 996 532 1001 q 568 991 557 991 q 606 1012 592 991 q 619 1073 619 1034 l 619 1078 l 714 1078 q 679 936 714 986 q 580 886 644 886 q 533 894 556 886 q 478 924 510 902 "},"₲":{"x_min":69.171875,"x_max":892.546875,"ha":966,"o":"m 733 404 l 648 404 l 648 545 l 892 545 l 892 75 q 720 4 809 27 q 580 -18 651 -14 l 580 -111 l 461 -111 l 461 -14 q 195 122 298 5 q 69 505 69 263 q 196 890 69 750 q 461 1025 299 1002 l 461 1123 l 580 1123 l 580 1030 q 712 1011 648 1027 q 860 955 790 992 l 860 787 q 731 849 789 830 q 580 875 655 874 l 580 136 q 633 141 604 137 q 733 186 690 149 l 733 404 m 461 857 q 349 779 394 834 q 270 505 270 683 q 347 231 270 328 q 461 151 393 174 l 461 857 "},"7":{"x_min":93,"x_max":856,"ha":966,"o":"m 93 1013 l 856 1013 l 856 865 l 461 0 l 206 0 l 580 821 l 93 821 l 93 1013 "},"K":{"x_min":128,"x_max":1119,"ha":1076,"o":"m 128 1013 l 389 1013 l 389 643 l 765 1013 l 1069 1013 l 581 533 l 1119 0 l 792 0 l 389 398 l 389 0 l 128 0 l 128 1013 "},",":{"x_min":74,"x_max":386,"ha":528,"o":"m 142 262 l 386 262 l 386 55 l 218 -198 l 74 -198 l 142 55 l 142 262 "},"d":{"x_min":62,"x_max":877,"ha":994,"o":"m 633 648 l 633 1055 l 877 1055 l 877 0 l 633 0 l 633 110 q 522 11 582 42 q 382 -20 462 -20 q 152 91 242 -20 q 62 379 62 203 q 152 666 62 554 q 382 778 242 778 q 522 746 461 778 q 633 648 582 714 m 473 156 q 592 213 551 156 q 633 379 633 270 q 592 544 633 487 q 473 602 551 602 q 354 544 395 602 q 314 379 314 487 q 354 213 314 270 q 473 156 395 156 "},"¨":{"x_min":134,"x_max":561,"ha":695,"o":"m 134 1075 l 293 1075 l 293 908 l 134 908 l 134 1075 m 402 1075 l 561 1075 l 561 908 l 402 908 l 402 1075 "},"Ô":{"x_min":69,"x_max":1111,"ha":1181,"o":"m 590 842 q 404 753 470 842 q 339 505 339 665 q 404 257 339 345 q 590 169 470 169 q 776 257 710 169 q 842 505 842 345 q 776 753 842 665 q 590 842 710 842 m 590 1031 q 972 891 834 1031 q 1111 505 1111 751 q 972 119 1111 259 q 590 -20 834 -20 q 207 119 346 -20 q 69 505 69 259 q 207 891 69 751 q 590 1031 346 1031 m 469 1288 l 677 1288 l 829 1109 l 708 1109 l 573 1218 l 438 1109 l 318 1109 l 469 1288 "},"E":{"x_min":128,"x_max":848,"ha":949,"o":"m 128 1013 l 833 1013 l 833 816 l 389 816 l 389 627 l 807 627 l 807 430 l 389 430 l 389 197 l 848 197 l 848 0 l 128 0 l 128 1013 "},"Y":{"x_min":-14,"x_max":1019,"ha":1006,"o":"m -14 1013 l 271 1013 l 502 652 l 732 1013 l 1019 1013 l 633 426 l 633 0 l 372 0 l 372 426 l -14 1013 "},"\"":{"x_min":132,"x_max":592,"ha":724,"o":"m 592 1013 l 592 637 l 431 637 l 431 1013 l 592 1013 m 293 1013 l 293 637 l 132 637 l 132 1013 l 293 1013 "},"ê":{"x_min":60,"x_max":875,"ha":942,"o":"m 875 382 l 875 313 l 308 313 q 369 184 316 227 q 517 141 422 141 q 674 163 593 141 q 839 233 754 186 l 839 46 q 666 -3 752 13 q 494 -20 580 -20 q 174 84 288 -20 q 60 379 60 189 q 172 671 60 564 q 481 778 284 778 q 767 670 660 778 q 875 382 875 562 m 625 463 q 584 574 625 532 q 479 617 544 617 q 365 577 409 617 q 310 463 321 537 l 625 463 m 412 1111 l 576 1111 l 750 856 l 629 856 l 494 1008 l 359 856 l 239 856 l 412 1111 "},"Ï":{"x_min":45,"x_max":472,"ha":517,"o":"m 128 1013 l 389 1013 l 389 0 l 128 0 l 128 1013 m 45 1288 l 204 1288 l 204 1121 l 45 1121 l 45 1288 m 313 1288 l 472 1288 l 472 1121 l 313 1121 l 313 1288 "},"Â":{"x_min":7,"x_max":1068,"ha":1075,"o":"m 741 184 l 333 184 l 269 0 l 7 0 l 381 1013 l 693 1013 l 1068 0 l 805 0 l 741 184 m 398 372 l 676 372 l 537 775 l 398 372 m 433 1288 l 642 1288 l 793 1109 l 672 1109 l 537 1218 l 402 1109 l 282 1109 l 433 1288 "},"Í":{"x_min":128,"x_max":468,"ha":517,"o":"m 128 1013 l 389 1013 l 389 0 l 128 0 l 128 1013 m 276 1288 l 468 1288 l 274 1109 l 142 1109 l 276 1288 "},"´":{"x_min":248,"x_max":631,"ha":695,"o":"m 439 1111 l 631 1111 l 380 856 l 248 856 l 439 1111 "},"ì":{"x_min":-29,"x_max":360,"ha":476,"o":"m 117 760 l 360 760 l 360 0 l 117 0 l 117 760 m 162 1111 l 354 856 l 221 856 l -29 1111 l 162 1111 "},"±":{"x_min":147,"x_max":1016,"ha":1164,"o":"m 662 871 l 662 631 l 1016 631 l 1016 471 l 662 471 l 662 231 l 501 231 l 501 471 l 147 471 l 147 631 l 501 631 l 501 871 l 662 871 m 147 161 l 1016 161 l 1016 0 l 147 0 l 147 161 "},"Ú":{"x_min":128,"x_max":1001,"ha":1128,"o":"m 128 1013 l 389 1013 l 389 405 q 430 225 389 279 q 564 172 471 172 q 698 225 657 172 q 740 405 740 279 l 740 1013 l 1001 1013 l 1001 405 q 893 85 1001 190 q 564 -20 785 -20 q 235 85 343 -20 q 128 405 128 190 l 128 1013 m 582 1288 l 774 1288 l 580 1109 l 448 1109 l 582 1288 "},"|":{"x_min":176,"x_max":330,"ha":507,"o":"m 330 1061 l 330 -328 l 176 -328 l 176 1061 l 330 1061 "},"§":{"x_min":10,"x_max":690,"ha":695,"o":"m 601 991 l 601 838 q 480 877 533 864 q 387 891 426 891 q 310 874 336 891 q 285 825 285 857 q 413 726 285 780 q 439 715 430 719 q 636 596 582 655 q 690 453 690 538 q 651 320 690 373 q 533 233 613 266 q 611 167 586 205 q 637 79 637 129 q 554 -75 637 -18 q 328 -132 472 -132 q 209 -122 270 -132 q 79 -92 148 -112 l 79 68 q 218 25 156 40 q 319 11 280 11 q 389 27 363 11 q 416 72 416 44 q 293 169 416 119 q 255 184 268 179 q 64 304 118 243 q 10 453 10 365 q 47 576 10 523 q 161 662 85 628 q 89 735 111 697 q 67 823 67 772 q 144 976 67 921 q 358 1031 222 1031 q 476 1021 415 1031 q 601 991 537 1011 m 294 580 q 225 536 248 561 q 203 476 203 510 q 244 397 203 430 q 410 319 286 364 q 478 362 454 335 q 502 424 502 388 q 455 505 502 469 q 294 580 408 541 "},"Ý":{"x_min":-14,"x_max":1019,"ha":1006,"o":"m -14 1013 l 271 1013 l 502 652 l 732 1013 l 1019 1013 l 633 426 l 633 0 l 372 0 l 372 426 l -14 1013 m 521 1288 l 713 1288 l 519 1109 l 387 1109 l 521 1288 "},"b":{"x_min":117,"x_max":932,"ha":994,"o":"m 521 156 q 640 213 599 156 q 681 379 681 270 q 640 544 681 487 q 521 602 599 602 q 401 544 443 602 q 360 379 360 487 q 401 213 360 270 q 521 156 443 156 m 360 648 q 471 746 410 714 q 611 778 532 778 q 841 666 751 778 q 932 379 932 554 q 841 91 932 203 q 611 -20 751 -20 q 471 11 532 -20 q 360 110 410 43 l 360 0 l 117 0 l 117 1055 l 360 1055 l 360 648 "},"q":{"x_min":62,"x_max":877,"ha":994,"o":"m 473 602 q 354 544 395 602 q 314 379 314 487 q 354 213 314 270 q 473 156 395 156 q 592 213 551 156 q 633 379 633 270 q 592 544 633 487 q 473 602 551 602 m 633 110 q 522 11 582 42 q 382 -20 462 -20 q 152 91 242 -20 q 62 379 62 203 q 152 666 62 555 q 382 777 242 777 q 522 745 462 777 q 633 647 582 714 l 633 760 l 877 760 l 877 -289 l 633 -289 l 633 110 "},"Ö":{"x_min":69,"x_max":1111,"ha":1181,"o":"m 590 842 q 404 753 470 842 q 339 505 339 665 q 404 257 339 345 q 590 169 470 169 q 776 257 710 169 q 842 505 842 345 q 776 753 842 665 q 590 842 710 842 m 590 1031 q 972 891 834 1031 q 1111 505 1111 751 q 972 119 1111 259 q 590 -20 834 -20 q 207 119 346 -20 q 69 505 69 259 q 207 891 69 751 q 590 1031 346 1031 m 377 1288 l 536 1288 l 536 1121 l 377 1121 l 377 1288 m 644 1288 l 803 1288 l 803 1121 l 644 1121 l 644 1288 "},"z":{"x_min":62,"x_max":742,"ha":808,"o":"m 79 760 l 742 760 l 742 590 l 341 174 l 742 174 l 742 0 l 62 0 l 62 169 l 462 586 l 79 586 l 79 760 "},"":{"x_min":59.6875,"x_max":894.578125,"ha":954,"o":"m 478 604 q 355 546 397 604 q 312 379 312 488 q 355 211 312 269 q 478 153 397 153 q 599 211 557 153 q 641 379 641 269 q 599 546 641 488 q 478 604 557 604 m 795 1055 l 795 906 l 393 906 q 307 894 328 906 q 286 858 286 882 q 325 805 286 833 q 478 777 364 777 q 784 672 674 777 q 894 379 894 566 q 784 86 894 191 q 478 -19 674 -19 q 170 86 281 -19 q 59 379 59 191 q 204 700 59 594 q 105 816 122 769 q 87 892 87 864 q 151 1010 87 966 q 350 1055 215 1055 l 795 1055 "},"ꚍ":{"x_min":5.421875,"x_max":798.953125,"ha":805,"o":"m 5 759 l 798 759 l 798 609 l 523 609 l 523 313 q 549 190 523 221 q 644 159 575 159 l 660 159 l 660 0 l 566 0 q 354 80 427 0 q 280 313 280 160 l 280 609 l 5 609 l 5 759 "},"Ꚋ":{"x_min":6.78125,"x_max":1226.234375,"ha":1338,"o":"m 6 1012 l 940 1012 l 940 815 l 604 815 l 604 626 l 958 626 q 1157 545 1088 626 q 1226 311 1226 466 l 1226 98 q 1123 -184 1226 -90 q 812 -278 1020 -278 l 759 -278 l 759 -80 l 800 -80 q 923 -35 881 -80 q 965 98 965 10 l 965 187 q 960 324 965 286 q 945 379 956 361 q 906 416 931 402 q 851 429 882 429 l 604 429 l 604 0 l 343 0 l 343 815 l 6 815 l 6 1012 "},"ã":{"x_min":60,"x_max":828,"ha":937,"o":"m 457 342 q 343 316 381 342 q 305 239 305 290 q 335 167 305 193 q 421 141 366 141 q 536 190 489 141 q 583 314 583 239 l 583 342 l 457 342 m 828 433 l 828 0 l 583 0 l 583 112 q 473 11 534 42 q 324 -20 412 -20 q 133 48 207 -20 q 60 227 60 117 q 151 423 60 361 q 440 486 243 486 l 583 486 l 583 505 q 537 590 583 563 q 395 617 492 617 q 250 601 317 617 q 126 555 183 586 l 126 740 q 282 768 204 758 q 440 778 361 778 q 736 696 645 778 q 828 433 828 615 m 478 924 l 440 949 q 434 953 438 951 q 385 975 402 975 q 347 953 360 975 q 335 892 335 932 l 335 887 l 241 887 q 275 1029 241 979 q 373 1080 310 1080 q 423 1070 398 1080 q 475 1041 447 1061 l 517 1012 q 544 996 532 1001 q 567 991 557 991 q 605 1012 591 991 q 619 1073 619 1034 l 619 1078 l 713 1078 q 678 936 713 986 q 580 886 643 886 q 532 894 555 886 q 478 924 510 902 "},"æ":{"x_min":60,"x_max":1390,"ha":1455,"o":"m 1140 463 q 1099 574 1140 532 q 993 617 1059 617 q 880 577 923 617 q 825 463 836 537 l 1140 463 m 457 342 q 343 316 381 342 q 305 239 305 290 q 335 167 305 193 q 421 141 366 141 q 537 190 490 141 q 584 314 584 239 l 584 342 l 457 342 m 126 740 q 282 768 206 758 q 424 778 358 778 q 599 751 525 778 q 721 672 673 725 q 842 751 773 724 q 994 778 912 778 q 1282 670 1174 778 q 1390 382 1390 562 l 1390 313 l 821 313 q 883 184 830 227 q 1031 141 935 141 q 1188 163 1108 141 q 1354 233 1269 186 l 1354 46 q 1181 -3 1267 13 q 1009 -20 1094 -20 q 797 16 887 -20 q 659 120 708 52 q 514 13 590 47 q 344 -20 439 -20 q 136 46 213 -20 q 60 227 60 113 q 151 423 60 361 q 440 486 243 486 l 584 486 l 584 505 q 538 590 584 563 q 396 617 492 617 q 251 601 318 617 q 126 555 183 586 l 126 740 "},"®":{"x_min":192,"x_max":1197,"ha":1389,"o":"m 694 903 q 541 873 612 903 q 412 784 471 843 q 323 655 353 725 q 294 502 294 585 q 323 350 294 420 q 412 220 353 279 q 541 133 470 162 q 694 104 612 104 q 847 132 778 104 q 976 220 917 161 q 1065 350 1035 279 q 1095 502 1095 420 q 1065 655 1095 585 q 976 784 1035 725 q 846 873 917 844 q 694 903 776 903 m 655 702 l 632 702 l 632 562 l 655 562 q 735 579 708 562 q 762 633 762 597 q 735 685 762 668 q 655 702 709 702 m 680 796 q 859 755 800 796 q 918 633 918 715 q 882 536 918 574 q 781 487 846 498 q 833 445 809 472 q 877 378 857 417 l 952 229 l 797 229 l 724 373 q 679 448 699 426 q 640 470 659 470 l 632 470 l 632 229 l 488 229 l 488 796 l 680 796 m 694 1007 q 886 969 797 1007 q 1049 858 975 932 q 1160 695 1123 784 q 1197 502 1197 606 q 1160 310 1197 399 q 1049 148 1123 222 q 886 37 975 74 q 694 0 797 0 q 502 37 591 0 q 339 148 413 74 q 228 310 265 222 q 192 502 192 399 q 228 695 192 606 q 339 858 265 784 q 502 969 413 932 q 694 1007 591 1007 "},"É":{"x_min":128,"x_max":848,"ha":949,"o":"m 128 1013 l 833 1013 l 833 816 l 389 816 l 389 627 l 807 627 l 807 430 l 389 430 l 389 197 l 848 197 l 848 0 l 128 0 l 128 1013 m 504 1288 l 696 1288 l 502 1109 l 370 1109 l 504 1288 "},"~":{"x_min":147,"x_max":1016,"ha":1164,"o":"m 1016 576 l 1016 411 q 883 333 944 356 q 757 310 822 310 q 588 349 685 310 q 573 355 578 353 q 558 361 568 357 q 389 403 453 403 q 271 376 330 403 q 147 294 213 350 l 147 459 q 279 537 219 514 q 405 561 340 561 q 574 521 477 561 q 589 515 584 517 q 604 509 594 513 q 773 468 709 468 q 888 493 831 468 q 1016 576 946 518 "},"³":{"x_min":61,"x_max":533,"ha":608,"o":"m 401 759 q 498 710 463 747 q 533 617 533 672 q 465 486 533 530 q 262 443 398 443 q 157 450 207 443 q 61 473 107 458 l 61 592 q 149 554 105 567 q 233 542 192 542 q 332 563 297 542 q 368 625 368 585 q 331 689 368 668 q 218 710 295 710 l 168 710 l 168 803 l 225 803 q 322 819 291 803 q 353 869 353 835 q 326 915 353 900 q 245 931 299 931 q 168 922 210 931 q 79 895 126 913 l 79 1007 q 174 1024 123 1018 q 284 1031 225 1031 q 457 993 397 1031 q 518 883 518 955 q 487 804 518 836 q 401 759 456 771 "},"₧":{"x_min":127.5,"x_max":2042.125,"ha":2108,"o":"m 388 823 l 388 540 l 533 540 q 650 577 609 540 q 691 682 691 614 q 650 786 691 750 q 533 823 609 823 l 388 823 m 1356 585 l 1266 585 l 1266 263 q 1287 192 1266 210 q 1364 173 1306 174 l 1364 212 q 1461 173 1412 189 q 1668 141 1589 141 q 1775 161 1739 141 q 1811 219 1811 181 q 1786 268 1811 252 q 1688 293 1762 284 l 1645 298 q 1418 373 1483 318 q 1353 540 1353 428 q 1356 585 1353 564 m 950 585 q 857 437 927 495 q 560 351 754 351 l 388 351 l 388 0 l 127 0 l 127 1012 l 560 1012 q 857 927 754 1012 q 954 759 934 863 l 1023 759 l 1023 975 l 1266 975 l 1266 759 l 1516 759 q 1689 777 1587 777 q 1830 767 1756 777 q 1991 735 1904 757 l 1991 551 q 1840 600 1913 583 q 1703 616 1768 616 q 1600 599 1634 616 q 1567 545 1567 581 q 1592 501 1567 516 q 1684 478 1618 485 l 1726 472 q 1977 394 1913 448 q 2042 223 2042 339 q 1952 41 2042 102 q 1685 -18 1863 -18 q 1530 -7 1610 -18 q 1483 0 1507 -4 l 1287 0 q 1083 60 1143 0 q 1023 263 1023 120 l 1023 585 l 950 585 "},"¡":{"x_min":195,"x_max":439,"ha":633,"o":"m 195 0 l 195 389 l 229 673 l 404 673 l 439 389 l 439 0 l 195 0 m 195 772 l 195 1013 l 439 1013 l 439 772 l 195 772 "},"Ꚍ":{"x_min":6.78125,"x_max":940.015625,"ha":947,"o":"m 6 1012 l 940 1012 l 940 815 l 604 815 l 604 376 q 646 242 604 288 q 769 197 687 197 l 809 197 l 809 0 l 756 0 q 445 93 548 0 q 343 376 343 187 l 343 815 l 6 815 l 6 1012 "},"ꙩ":{"x_min":60,"x_max":895,"ha":954,"o":"m 478 604 q 355 546 397 604 q 313 379 313 488 q 355 211 313 269 q 478 154 397 154 q 599 211 557 154 q 642 379 642 269 q 599 546 642 488 q 478 604 557 604 m 478 778 q 784 672 674 778 q 895 379 895 566 q 784 85 895 191 q 478 -20 674 -20 q 170 85 281 -20 q 60 379 60 191 q 170 672 60 566 q 478 778 281 778 m 355 512 l 599 512 l 599 250 l 355 250 l 355 512 "},"[":{"x_min":119,"x_max":541,"ha":635,"o":"m 119 1055 l 541 1055 l 541 902 l 350 902 l 350 -30 l 541 -30 l 541 -183 l 119 -183 l 119 1055 "},"L":{"x_min":128,"x_max":848,"ha":885,"o":"m 128 1013 l 389 1013 l 389 197 l 848 197 l 848 0 l 128 0 l 128 1013 "}," ":{"x_min":0,"x_max":0,"ha":484},"ꙫ":{"x_min":59.6875,"x_max":1145.515625,"ha":1205,"o":"m 392 484 l 568 484 l 568 276 l 392 276 l 392 484 m 636 484 l 812 484 l 812 276 l 636 276 l 636 484 m 604 604 q 387 546 461 604 q 312 379 312 488 q 387 211 312 269 q 604 153 461 153 q 818 211 744 153 q 892 379 892 269 q 818 546 892 488 q 604 604 744 604 m 603 777 q 1002 672 858 777 q 1145 379 1145 566 q 1002 86 1145 191 q 603 -19 858 -19 q 203 86 347 -19 q 59 379 59 191 q 203 672 59 566 q 603 777 347 777 "},"%":{"x_min":45,"x_max":1348,"ha":1392,"o":"m 1076 417 q 1002 375 1028 417 q 976 256 976 333 q 1002 136 976 178 q 1076 95 1028 95 q 1151 136 1125 95 q 1177 256 1177 178 q 1150 375 1177 333 q 1076 417 1124 417 m 1076 531 q 1275 457 1202 531 q 1348 256 1348 384 q 1275 54 1348 128 q 1076 -20 1202 -20 q 877 54 950 -20 q 805 256 805 128 q 877 457 805 383 q 1076 531 950 531 m 454 -20 l 304 -20 l 937 1031 l 1088 1031 l 454 -20 m 315 1031 q 513 957 441 1031 q 586 755 586 883 q 513 553 586 627 q 315 480 441 480 q 117 553 189 480 q 45 755 45 627 q 117 957 45 883 q 315 1031 189 1031 m 315 917 q 240 874 266 917 q 214 755 214 832 q 240 635 214 677 q 315 593 266 593 q 389 635 363 593 q 416 755 416 677 q 389 874 416 832 q 315 917 363 917 "},"P":{"x_min":128,"x_max":962,"ha":1018,"o":"m 128 1013 l 561 1013 q 858 927 755 1013 q 962 682 962 841 q 858 437 962 523 q 561 352 755 352 l 389 352 l 389 0 l 128 0 l 128 1013 m 389 824 l 389 541 l 533 541 q 651 577 610 541 q 693 682 693 614 q 651 787 693 750 q 533 824 610 824 l 389 824 "},"À":{"x_min":7,"x_max":1068,"ha":1075,"o":"m 741 184 l 333 184 l 269 0 l 7 0 l 381 1013 l 693 1013 l 1068 0 l 805 0 l 741 184 m 398 372 l 676 372 l 537 775 l 398 372 m 485 1288 l 620 1109 l 487 1109 l 294 1288 l 485 1288 "},"_":{"x_min":0,"x_max":695,"ha":695,"o":"m 695 -199 l 695 -328 l 0 -328 l 0 -199 l 695 -199 "},"ñ":{"x_min":117,"x_max":881,"ha":989,"o":"m 881 462 l 881 0 l 637 0 l 637 75 l 637 354 q 632 489 637 452 q 617 544 628 527 q 578 581 603 568 q 522 595 554 595 q 403 536 446 595 q 360 373 360 477 l 360 0 l 117 0 l 117 760 l 360 760 l 360 648 q 476 746 414 714 q 613 778 538 778 q 812 697 744 778 q 881 462 881 616 m 512 924 l 474 949 q 468 953 472 951 q 419 975 436 975 q 381 953 394 975 q 369 892 369 932 l 369 887 l 275 887 q 309 1029 275 979 q 407 1080 344 1080 q 457 1070 432 1080 q 509 1041 481 1061 l 551 1012 q 578 996 566 1001 q 601 991 591 991 q 639 1012 625 991 q 653 1073 653 1034 l 653 1078 l 747 1078 q 712 936 747 986 q 614 886 677 886 q 566 894 589 886 q 512 924 544 902 "},"+":{"x_min":147,"x_max":1016,"ha":1164,"o":"m 662 870 l 662 515 l 1016 515 l 1016 355 l 662 355 l 662 0 l 501 0 l 501 355 l 147 355 l 147 515 l 501 515 l 501 870 l 662 870 "},"½":{"x_min":67,"x_max":1370,"ha":1438,"o":"m 497 -20 l 346 -20 l 979 1031 l 1131 1031 l 497 -20 m 1118 114 l 1370 114 l 1370 0 l 914 0 l 914 103 l 1125 284 q 1184 347 1166 320 q 1202 402 1202 374 q 1177 456 1202 435 q 1112 478 1152 478 q 1022 462 1070 478 q 918 416 974 447 l 918 541 q 1032 568 976 559 q 1138 578 1087 578 q 1306 534 1245 578 q 1367 415 1367 490 q 1342 325 1367 366 q 1250 226 1318 284 l 1118 114 m 80 559 l 220 559 l 220 912 l 67 877 l 67 986 l 222 1019 l 376 1019 l 376 559 l 514 559 l 514 453 l 80 453 l 80 559 "},"Ꙧ":{"x_min":127.5,"x_max":1712.515625,"ha":1751,"o":"m 127 1012 l 459 1012 l 690 470 l 922 1012 l 1712 1012 l 1712 815 l 1254 815 l 1254 0 l 1007 0 l 1007 740 l 773 194 l 608 194 l 375 740 l 375 0 l 127 0 l 127 1012 "},"Æ":{"x_min":0,"x_max":1406,"ha":1507,"o":"m 603 839 l 430 425 l 686 425 l 686 839 l 603 839 m 423 1013 l 1390 1013 l 1390 816 l 947 816 l 947 627 l 1364 627 l 1364 430 l 947 430 l 947 197 l 1406 197 l 1406 0 l 686 0 l 686 237 l 351 237 l 251 0 l 0 0 l 423 1013 "},"ꙍ":{"x_min":65.109375,"x_max":1563.984375,"ha":1629,"o":"m 1436 759 q 1530 547 1494 672 q 1563 318 1563 427 q 1495 78 1563 164 q 1269 -18 1419 -18 q 1135 32 1215 -18 q 988 126 1062 79 q 814 177 896 177 q 640 126 732 177 l 494 32 q 359 -18 413 -18 q 133 78 209 -18 q 65 318 65 164 q 99 547 65 427 q 192 759 134 672 l 400 759 q 335 558 364 691 q 309 347 309 433 q 407 174 309 174 q 541 224 446 174 q 693 288 646 280 q 814 300 756 300 q 935 288 873 300 q 1089 224 983 279 q 1221 174 1185 174 q 1319 347 1319 174 q 1293 558 1319 433 q 1228 759 1264 691 l 1436 759 "},"₣":{"x_min":103.765625,"x_max":920.34375,"ha":966,"o":"m 215 256 l 215 1012 l 920 1012 l 920 815 l 476 815 l 476 626 l 893 626 l 893 429 l 476 429 l 476 256 l 595 256 l 595 196 l 476 196 l 476 0 l 215 0 l 215 196 l 103 196 l 103 256 l 215 256 "},"Ë":{"x_min":128,"x_max":848,"ha":949,"o":"m 128 1013 l 833 1013 l 833 816 l 389 816 l 389 627 l 807 627 l 807 430 l 389 430 l 389 197 l 848 197 l 848 0 l 128 0 l 128 1013 m 256 1288 l 415 1288 l 415 1121 l 256 1121 l 256 1288 m 524 1288 l 683 1288 l 683 1121 l 524 1121 l 524 1288 "},"'":{"x_min":132,"x_max":293,"ha":425,"o":"m 293 1013 l 293 637 l 132 637 l 132 1013 l 293 1013 "},"ª":{"x_min":107,"x_max":679,"ha":783,"o":"m 119 389 l 670 389 l 670 253 l 119 253 l 119 389 m 436 733 q 310 715 345 733 q 275 655 275 697 q 297 601 275 621 q 359 582 319 582 q 458 620 419 582 q 497 718 497 659 l 497 733 l 436 733 m 679 790 l 679 486 l 513 486 l 513 572 q 428 496 475 520 q 316 472 380 472 q 162 517 218 472 q 107 641 107 562 q 178 782 107 737 q 402 827 249 827 l 496 827 l 496 840 q 465 898 496 878 q 377 918 435 918 q 262 906 318 918 q 152 871 205 894 l 152 992 q 271 1021 214 1011 q 380 1031 329 1031 q 605 971 532 1031 q 679 790 679 912 "},"Ꚕ":{"x_min":111.90625,"x_max":994.953125,"ha":1122,"o":"m 373 699 l 373 626 l 727 626 q 925 547 855 626 q 994 311 994 467 l 994 0 l 733 0 l 733 187 q 716 375 733 347 q 619 429 683 429 l 373 429 l 373 0 l 111 0 l 111 699 q 185 931 111 850 q 398 1012 259 1012 l 594 1012 l 594 853 l 493 853 q 398 822 424 853 q 373 699 373 790 "},"₭":{"x_min":40.6875,"x_max":965.796875,"ha":966,"o":"m 115 585 l 115 1012 l 339 1012 l 339 642 l 662 1012 l 922 1012 l 550 585 l 807 585 l 807 482 l 547 482 l 965 0 l 685 0 l 339 398 l 339 0 l 115 0 l 115 482 l 40 482 l 40 585 l 115 585 "},"ð":{"x_min":60,"x_max":895,"ha":954,"o":"m 624 504 q 550 531 587 522 q 478 541 513 541 q 356 495 399 541 q 313 368 313 450 q 357 211 313 268 q 478 154 401 154 q 599 212 557 154 q 642 379 642 270 q 637 441 642 409 q 624 504 633 472 m 743 746 q 859 566 823 654 q 895 379 895 479 q 784 85 895 191 q 478 -20 674 -20 q 170 85 281 -20 q 60 379 60 191 q 162 626 60 536 q 443 716 264 716 q 500 711 474 716 q 551 697 527 707 l 422 845 l 169 765 l 144 852 l 353 918 l 225 1055 l 464 1055 l 539 976 l 794 1053 l 818 966 l 604 901 l 743 746 "},"T":{"x_min":7,"x_max":940,"ha":947,"o":"m 7 1013 l 940 1013 l 940 816 l 604 816 l 604 0 l 343 0 l 343 816 l 7 816 l 7 1013 "},"ꙧ":{"x_min":116.65625,"x_max":1351.703125,"ha":1385,"o":"m 116 759 l 396 759 l 567 379 l 737 759 l 1351 759 l 1351 609 l 1018 609 l 1018 0 l 1018 0 l 775 0 l 775 430 l 647 145 l 488 145 l 359 430 l 359 0 l 116 0 l 116 759 "},"Þ":{"x_min":128,"x_max":962,"ha":1025,"o":"m 389 175 l 389 0 l 128 0 l 128 1013 l 389 1013 l 389 836 l 561 836 q 858 750 755 836 q 962 505 962 664 q 858 260 962 346 q 561 175 755 175 l 389 175 m 389 648 l 389 364 l 533 364 q 651 400 610 364 q 693 504 693 437 q 651 610 693 573 q 533 648 610 648 l 389 648 "},"₮":{"x_min":6.78125,"x_max":940.015625,"ha":947,"o":"m 604 387 l 604 0 l 343 0 l 343 237 l 275 198 l 245 250 l 343 306 l 343 420 l 275 381 l 245 433 l 343 489 l 343 815 l 6 815 l 6 1012 l 940 1012 l 940 815 l 604 815 l 604 640 l 671 678 l 701 626 l 604 571 l 604 457 l 671 495 l 701 443 l 604 387 "},"j":{"x_min":-46,"x_max":360,"ha":476,"o":"m 117 760 l 360 760 l 360 13 q 286 -219 360 -139 q 74 -300 213 -300 l -46 -300 l -46 -141 l -3 -141 q 91 -109 65 -141 q 117 13 117 -78 l 117 760 m 117 1055 l 360 1055 l 360 858 l 117 858 l 117 1055 "},"1":{"x_min":156,"x_max":871,"ha":966,"o":"m 162 180 l 393 180 l 393 835 l 156 786 l 156 964 l 392 1013 l 640 1013 l 640 180 l 871 180 l 871 0 l 162 0 l 162 180 "},"₡":{"x_min":69.171875,"x_max":881.015625,"ha":966,"o":"m 452 -6 q 366 17 407 2 l 343 -60 l 234 -60 l 271 67 q 208 122 238 91 q 69 505 69 263 q 208 889 69 748 q 554 1030 337 1022 l 569 1080 l 678 1080 l 663 1026 q 737 1011 700 1021 q 750 1008 743 1009 l 771 1080 l 881 1080 l 848 970 q 877 955 863 963 l 877 746 q 797 795 836 775 l 613 169 q 743 192 681 170 q 877 265 809 215 l 877 55 q 737 0 810 18 q 584 -19 663 -19 q 557 -18 571 -19 l 545 -61 l 436 -61 l 452 -6 m 493 822 q 397 752 438 799 q 322 505 322 662 q 351 337 322 408 l 493 822 m 427 227 q 508 183 463 198 l 698 831 q 609 841 655 841 l 427 227 "},"ä":{"x_min":60,"x_max":828,"ha":937,"o":"m 457 342 q 343 316 381 342 q 305 239 305 290 q 335 167 305 193 q 421 141 366 141 q 536 190 489 141 q 583 314 583 239 l 583 342 l 457 342 m 828 433 l 828 0 l 583 0 l 583 112 q 473 11 534 42 q 324 -20 412 -20 q 133 48 207 -20 q 60 227 60 117 q 151 423 60 361 q 440 486 243 486 l 583 486 l 583 505 q 537 590 583 563 q 395 617 492 617 q 250 601 317 617 q 126 555 183 586 l 126 740 q 282 768 204 758 q 440 778 361 778 q 736 696 645 778 q 828 433 828 615 m 260 1075 l 419 1075 l 419 908 l 260 908 l 260 1075 m 528 1075 l 687 1075 l 687 908 l 528 908 l 528 1075 "},"<":{"x_min":147,"x_max":1016,"ha":1164,"o":"m 1016 659 l 362 434 l 1016 210 l 1016 41 l 147 354 l 147 515 l 1016 829 l 1016 659 "},"£":{"x_min":85,"x_max":852,"ha":966,"o":"m 844 995 l 844 801 q 746 840 796 827 q 643 853 696 853 q 525 810 563 853 q 487 679 487 768 l 487 564 l 740 564 l 740 402 l 487 402 l 487 180 l 852 180 l 852 0 l 85 0 l 85 180 l 239 180 l 239 402 l 107 402 l 107 564 l 239 564 l 239 679 q 325 947 239 863 q 598 1031 411 1031 q 722 1022 660 1031 q 844 995 783 1013 "},"¹":{"x_min":83,"x_max":530,"ha":608,"o":"m 96 559 l 236 559 l 236 912 l 83 877 l 83 986 l 238 1019 l 392 1019 l 392 559 l 530 559 l 530 453 l 96 453 l 96 559 "},"t":{"x_min":18,"x_max":632,"ha":664,"o":"m 382 975 l 382 760 l 632 760 l 632 586 l 382 586 l 382 264 q 403 192 382 211 q 486 174 424 174 l 611 174 l 611 0 l 403 0 q 199 60 259 0 q 139 264 139 120 l 139 586 l 18 586 l 18 760 l 139 760 l 139 975 l 382 975 "},"¬":{"x_min":147,"x_max":1016,"ha":1164,"o":"m 147 617 l 1016 617 l 1016 195 l 857 195 l 857 456 l 147 456 l 147 617 "},"Ꙗ":{"x_min":127.5,"x_max":1511.078125,"ha":1518,"o":"m 841 372 l 1119 372 l 980 775 l 841 372 m 1184 184 l 776 184 l 712 0 l 449 0 l 600 406 l 388 406 l 388 0 l 127 0 l 127 1012 l 388 1012 l 388 604 l 673 604 l 824 1012 l 1136 1012 l 1511 0 l 1248 0 l 1184 184 "},"ù":{"x_min":109,"x_max":873,"ha":989,"o":"m 109 295 l 109 760 l 353 760 l 353 683 q 352 528 353 622 q 351 404 351 435 q 356 272 351 312 q 372 213 361 231 q 411 176 387 189 q 467 164 435 164 q 586 222 543 164 q 630 384 630 280 l 630 760 l 873 760 l 873 0 l 630 0 l 630 110 q 513 11 575 43 q 378 -20 452 -20 q 177 60 246 -20 q 109 295 109 141 m 419 1111 l 611 856 l 478 856 l 228 1111 l 419 1111 "},"W":{"x_min":41,"x_max":1488,"ha":1532,"o":"m 41 1013 l 291 1013 l 466 276 l 639 1013 l 891 1013 l 1064 276 l 1239 1013 l 1488 1013 l 1249 0 l 948 0 l 764 770 l 582 0 l 281 0 l 41 1013 "},"ꚕ":{"x_min":116.65625,"x_max":880.328125,"ha":989,"o":"m 880 462 l 880 0 l 636 0 l 636 75 l 636 352 q 632 489 636 452 q 616 544 627 526 q 577 581 602 568 q 522 594 553 594 q 402 535 446 594 q 359 373 359 477 l 359 0 l 116 0 l 116 741 q 191 975 116 893 q 403 1055 264 1055 l 594 1055 l 594 895 l 481 895 q 386 864 412 895 q 360 741 360 833 l 360 649 q 476 746 415 715 q 612 777 537 777 q 812 697 744 777 q 880 462 880 616 "},"ï":{"x_min":25,"x_max":452,"ha":476,"o":"m 117 760 l 360 760 l 360 0 l 117 0 l 117 760 m 25 1075 l 184 1075 l 184 908 l 25 908 l 25 1075 m 293 1075 l 452 1075 l 452 908 l 293 908 l 293 1075 "},">":{"x_min":147,"x_max":1016,"ha":1164,"o":"m 147 659 l 147 829 l 1016 515 l 1016 354 l 147 41 l 147 210 l 801 434 l 147 659 "},"v":{"x_min":21,"x_max":885,"ha":905,"o":"m 21 760 l 263 760 l 453 234 l 641 760 l 885 760 l 585 0 l 319 0 l 21 760 "},"û":{"x_min":109,"x_max":873,"ha":989,"o":"m 109 295 l 109 760 l 353 760 l 353 683 q 352 528 353 622 q 351 404 351 435 q 356 272 351 312 q 372 213 361 231 q 411 176 387 189 q 467 164 435 164 q 586 222 543 164 q 630 384 630 280 l 630 760 l 873 760 l 873 0 l 630 0 l 630 110 q 513 11 575 43 q 378 -20 452 -20 q 177 60 246 -20 q 109 295 109 141 m 409 1111 l 573 1111 l 746 856 l 625 856 l 491 1008 l 356 856 l 235 856 l 409 1111 "},"Ò":{"x_min":69,"x_max":1111,"ha":1181,"o":"m 590 842 q 404 753 470 842 q 339 505 339 665 q 404 257 339 345 q 590 169 470 169 q 776 257 710 169 q 842 505 842 345 q 776 753 842 665 q 590 842 710 842 m 590 1031 q 972 891 834 1031 q 1111 505 1111 751 q 972 119 1111 259 q 590 -20 834 -20 q 207 119 346 -20 q 69 505 69 259 q 207 891 69 751 q 590 1031 346 1031 m 538 1288 l 673 1109 l 540 1109 l 347 1288 l 538 1288 "},"Ꙣ":{"x_min":83.421875,"x_max":1469.03125,"ha":1507,"o":"m 269 821 l 269 1012 l 1469 1012 l 1469 815 l 1010 815 l 1010 197 l 1153 197 l 1153 -217 l 956 -217 l 956 0 l 280 0 l 280 -217 l 83 -217 l 83 197 l 159 197 q 249 313 229 244 q 269 821 269 381 m 749 815 l 530 815 l 530 753 q 467 197 530 319 l 749 197 l 749 815 "},"Ꙑ":{"x_min":67.828125,"x_max":1587,"ha":1714,"o":"m 816 177 q 936 209 898 177 q 974 304 974 241 q 936 397 974 366 q 816 429 899 429 l 663 429 l 663 177 l 816 177 m 402 815 l 67 815 l 67 1012 l 663 1012 l 663 626 l 835 626 q 1131 551 1027 626 q 1235 312 1235 475 q 1131 75 1235 151 q 835 0 1027 0 l 402 0 l 402 815 m 1326 1013 l 1587 1013 l 1587 0 l 1326 0 l 1326 1013 "},"&":{"x_min":83,"x_max":1153,"ha":1211,"o":"m 540 672 l 818 366 q 873 473 854 414 q 896 607 892 532 l 1107 607 q 1059 387 1096 483 q 954 218 1021 290 l 1153 0 l 864 0 l 798 73 q 648 3 726 26 q 481 -20 569 -20 q 193 73 303 -20 q 83 316 83 167 q 131 491 83 415 q 290 640 180 568 q 247 712 261 676 q 234 787 234 748 q 320 964 234 898 q 549 1031 406 1031 q 677 1021 610 1031 q 817 992 744 1011 l 817 803 q 696 851 753 835 q 584 867 639 867 q 503 846 532 867 q 475 790 475 826 q 491 737 475 767 q 540 672 508 708 m 406 503 q 340 431 362 471 q 318 343 318 391 q 375 209 318 264 q 513 155 433 155 q 598 168 558 155 q 671 210 637 182 l 406 503 "},"Ð":{"x_min":22,"x_max":1093,"ha":1164,"o":"m 401 816 l 401 598 l 560 598 l 560 422 l 401 422 l 401 197 l 493 197 q 738 276 653 197 q 823 507 823 356 q 738 737 823 658 q 493 816 654 816 l 401 816 m 140 1013 l 414 1013 q 758 980 645 1013 q 952 868 871 947 q 1058 710 1023 799 q 1093 507 1093 620 q 1058 302 1093 392 q 952 144 1023 213 q 756 32 870 65 q 414 0 642 0 l 140 0 l 140 422 l 22 422 l 22 598 l 140 598 l 140 1013 "},"I":{"x_min":128,"x_max":389,"ha":517,"o":"m 128 1013 l 389 1013 l 389 0 l 128 0 l 128 1013 "},"G":{"x_min":69,"x_max":1038,"ha":1140,"o":"m 1038 74 q 835 3 940 27 q 617 -20 729 -20 q 216 121 364 -20 q 69 505 69 262 q 219 890 69 750 q 632 1031 370 1031 q 826 1012 733 1031 q 1001 955 918 993 l 1001 746 q 832 818 916 794 q 664 842 748 842 q 423 754 508 842 q 339 505 339 667 q 420 256 339 344 q 651 169 501 169 q 727 174 692 169 q 790 190 762 179 l 790 387 l 631 387 l 631 562 l 1038 562 l 1038 74 "},"`":{"x_min":64,"x_max":447,"ha":695,"o":"m 255 1111 l 447 856 l 314 856 l 64 1111 l 255 1111 "},"·":{"x_min":142,"x_max":386,"ha":528,"o":"m 142 614 l 386 614 l 386 352 l 142 352 l 142 614 "},"r":{"x_min":117,"x_max":681,"ha":685,"o":"m 681 553 q 617 574 649 567 q 554 582 586 582 q 410 522 460 582 q 360 350 360 462 l 360 0 l 117 0 l 117 760 l 360 760 l 360 635 q 467 743 406 709 q 612 778 527 778 q 639 777 624 778 q 680 772 653 776 l 681 553 "},"₤":{"x_min":84.78125,"x_max":851.171875,"ha":966,"o":"m 238 693 q 324 946 242 866 q 597 1030 411 1030 q 721 1021 659 1030 q 843 994 782 1012 l 843 800 q 745 839 795 826 q 642 852 695 852 q 524 810 562 852 q 486 693 489 771 l 739 693 l 739 562 l 486 562 l 486 455 l 739 455 l 739 324 l 486 324 l 486 180 l 851 180 l 851 0 l 84 0 l 84 180 l 238 180 l 238 324 l 107 324 l 107 455 l 238 455 l 238 562 l 107 562 l 107 693 l 238 693 "},"¿":{"x_min":96,"x_max":716,"ha":806,"o":"m 331 670 l 576 670 l 576 636 q 553 538 576 581 q 457 428 531 496 l 414 388 q 358 323 376 354 q 341 259 341 291 q 373 185 341 212 q 464 158 406 158 q 583 181 519 158 q 716 249 647 204 l 716 36 q 566 -6 635 7 q 435 -20 497 -20 q 182 47 269 -20 q 96 244 96 115 q 122 364 96 311 q 212 476 148 416 l 256 515 q 316 583 302 557 q 331 639 331 608 l 331 670 m 576 772 l 331 772 l 331 1013 l 576 1013 l 576 772 "},"ý":{"x_min":17,"x_max":880,"ha":905,"o":"m 17 760 l 259 760 l 463 244 l 637 760 l 880 760 l 560 -72 q 448 -249 512 -199 q 279 -300 384 -300 l 139 -300 l 139 -141 l 214 -141 q 304 -121 276 -141 q 348 -50 332 -101 l 355 -29 l 17 760 m 545 1111 l 737 1111 l 486 856 l 354 856 l 545 1111 "},"x":{"x_min":21,"x_max":875,"ha":896,"o":"m 308 388 l 35 760 l 291 760 l 446 534 l 604 760 l 861 760 l 587 390 l 875 0 l 617 0 l 446 240 l 278 0 l 21 0 l 308 388 "},"è":{"x_min":60,"x_max":875,"ha":942,"o":"m 875 382 l 875 313 l 308 313 q 369 184 316 227 q 517 141 422 141 q 674 163 593 141 q 839 233 754 186 l 839 46 q 666 -3 752 13 q 494 -20 580 -20 q 174 84 288 -20 q 60 379 60 189 q 172 671 60 564 q 481 778 284 778 q 767 670 660 778 q 875 382 875 562 m 625 463 q 584 574 625 532 q 479 617 544 617 q 365 577 409 617 q 310 463 321 537 l 625 463 m 402 1111 l 594 856 l 461 856 l 211 1111 l 402 1111 "},"º":{"x_min":79,"x_max":704,"ha":783,"o":"m 391 1031 q 620 955 536 1031 q 704 751 704 880 q 620 547 704 622 q 391 473 537 473 q 162 547 246 473 q 79 751 79 622 q 162 955 79 880 q 391 1031 246 1031 m 112 388 l 670 388 l 670 252 l 112 252 l 112 388 m 391 916 q 303 873 334 916 q 273 751 273 830 q 303 630 273 672 q 391 588 334 588 q 479 630 448 588 q 510 751 510 672 q 479 873 510 830 q 391 916 448 916 "},"Ø":{"x_min":30.4375,"x_max":1143.5625,"ha":1181,"o":"m 409 251 q 489 189 444 209 q 590 169 533 169 q 776 257 710 169 q 842 505 842 345 q 836 591 842 551 q 820 664 831 630 l 409 251 m 768 763 q 689 822 734 803 q 590 842 645 842 q 404 753 470 842 q 339 505 339 665 q 343 423 339 461 q 358 353 348 384 l 768 763 m 169 164 q 94 317 119 232 q 69 504 69 402 q 207 891 69 751 q 590 1031 346 1031 q 778 1005 694 1031 q 932 928 862 980 l 1066 1062 l 1143 984 l 1007 850 q 1085 696 1059 782 q 1111 505 1111 609 q 972 119 1111 259 q 590 -20 834 -20 q 399 6 486 -20 q 244 87 313 33 l 106 -50 l 30 26 l 169 164 "},"÷":{"x_min":147,"x_max":1016,"ha":1164,"o":"m 478 268 l 686 268 l 686 58 l 478 58 l 478 268 m 478 812 l 686 812 l 686 602 l 478 602 l 478 812 m 147 515 l 1016 515 l 1016 355 l 147 355 l 147 515 "},"h":{"x_min":117,"x_max":881,"ha":989,"o":"m 881 462 l 881 0 l 637 0 l 637 75 l 637 352 q 632 489 637 452 q 617 544 628 527 q 578 581 603 568 q 522 595 554 595 q 403 536 446 595 q 360 373 360 477 l 360 0 l 117 0 l 117 1055 l 360 1055 l 360 648 q 476 746 414 714 q 613 778 538 778 q 812 697 744 778 q 881 462 881 616 "},"Ꙇ":{"x_min":128,"x_max":595,"ha":605,"o":"m 128 1013 l 389 1013 l 389 376 q 430 242 389 288 q 553 197 472 197 l 595 197 l 595 0 l 541 0 q 230 93 333 0 q 128 376 128 187 l 128 1013 "},".":{"x_min":142,"x_max":386,"ha":528,"o":"m 142 262 l 386 262 l 386 0 l 142 0 l 142 262 "},"₱":{"x_min":47.46875,"x_max":966.46875,"ha":966,"o":"m 611 585 l 362 585 l 362 540 l 495 540 q 604 577 565 540 q 611 585 607 581 m 362 709 l 362 655 l 640 655 q 642 682 642 668 q 640 709 642 696 l 362 709 m 121 655 l 121 709 l 47 709 l 47 779 l 121 779 l 121 1012 l 521 1012 q 795 927 699 1012 q 880 779 859 869 l 966 779 l 966 709 l 889 709 q 890 682 890 695 q 889 655 890 668 l 966 655 l 966 585 l 880 585 q 795 437 859 494 q 521 351 699 351 l 362 351 l 362 0 l 121 0 l 121 585 l 47 585 l 47 655 l 121 655 m 362 779 l 611 779 q 604 786 607 783 q 495 823 565 823 l 362 823 l 362 779 "},";":{"x_min":87,"x_max":400,"ha":555,"o":"m 155 262 l 400 262 l 400 55 l 231 -198 l 87 -198 l 155 55 l 155 262 m 155 760 l 400 760 l 400 498 l 155 498 l 155 760 "},"f":{"x_min":26,"x_max":617,"ha":604,"o":"m 617 1055 l 617 896 l 482 896 q 410 877 430 896 q 390 812 390 858 l 390 760 l 598 760 l 598 586 l 390 586 l 390 0 l 147 0 l 147 586 l 26 586 l 26 760 l 147 760 l 147 812 q 216 995 147 936 q 430 1055 285 1055 l 617 1055 "},"ꙇ":{"x_min":115,"x_max":495,"ha":612,"o":"m 115 760 l 358 760 l 358 312 q 383 190 358 221 q 478 159 409 159 l 495 159 l 495 0 l 400 0 q 188 80 261 0 q 115 312 115 160 l 115 760 "},"A":{"x_min":7,"x_max":1068,"ha":1075,"o":"m 741 184 l 333 184 l 269 0 l 7 0 l 381 1013 l 693 1013 l 1068 0 l 805 0 l 741 184 m 398 372 l 676 372 l 537 775 l 398 372 "},"6":{"x_min":86,"x_max":892,"ha":966,"o":"m 502 500 q 400 455 434 500 q 366 322 366 411 q 400 188 366 233 q 502 144 434 144 q 605 188 571 144 q 640 322 640 233 q 605 455 640 411 q 502 500 571 500 m 826 986 l 826 799 q 704 844 761 829 q 593 859 647 859 q 411 794 476 859 q 335 601 345 729 q 432 651 379 634 q 546 668 484 668 q 796 577 701 668 q 892 338 892 486 q 785 78 892 176 q 499 -20 678 -20 q 194 113 302 -20 q 86 491 86 246 q 212 886 86 742 q 559 1030 339 1030 q 695 1019 629 1030 q 826 986 761 1008 "},"O":{"x_min":69,"x_max":1111,"ha":1181,"o":"m 590 842 q 404 753 470 842 q 339 505 339 665 q 404 257 339 345 q 590 169 470 169 q 776 257 710 169 q 842 505 842 345 q 776 753 842 665 q 590 842 710 842 m 590 1031 q 972 891 834 1031 q 1111 505 1111 751 q 972 119 1111 259 q 590 -20 834 -20 q 207 119 346 -20 q 69 505 69 259 q 207 891 69 751 q 590 1031 346 1031 "},"n":{"x_min":117,"x_max":881,"ha":989,"o":"m 881 462 l 881 0 l 637 0 l 637 75 l 637 354 q 632 489 637 452 q 617 544 628 527 q 578 581 603 568 q 522 595 554 595 q 403 536 446 595 q 360 373 360 477 l 360 0 l 117 0 l 117 760 l 360 760 l 360 648 q 476 746 414 714 q 613 778 538 778 q 812 697 744 778 q 881 462 881 616 "},"3":{"x_min":93,"x_max":856,"ha":966,"o":"m 647 546 q 802 454 749 519 q 856 287 856 388 q 740 58 856 136 q 404 -20 625 -20 q 247 -7 326 -20 q 93 31 169 5 l 93 232 q 238 176 166 195 q 380 158 310 158 q 539 194 484 158 q 595 297 595 230 q 538 402 595 366 q 371 438 481 438 l 267 438 l 267 606 l 376 606 q 522 636 474 606 q 571 730 571 667 q 524 821 571 789 q 391 853 477 853 q 264 838 328 853 q 136 797 199 824 l 136 988 q 289 1020 213 1009 q 438 1031 365 1031 q 733 966 635 1031 q 832 771 832 901 q 785 626 832 682 q 647 546 738 569 "},"9":{"x_min":72,"x_max":878,"ha":966,"o":"m 139 22 l 139 209 q 258 165 201 180 q 371 151 315 151 q 553 216 488 151 q 630 409 618 281 q 531 358 583 375 q 418 341 479 341 q 167 431 262 341 q 72 669 72 522 q 178 931 72 833 q 462 1030 284 1030 q 769 896 660 1030 q 878 518 878 762 q 751 123 878 267 q 402 -20 624 -20 q 266 -9 331 -20 q 139 22 201 1 m 461 511 q 564 555 529 511 q 599 688 599 599 q 564 821 599 776 q 461 866 529 866 q 358 821 393 866 q 324 688 324 776 q 358 555 324 599 q 461 511 393 511 "},"ꙣ":{"x_min":78,"x_max":1250.640625,"ha":1284,"o":"m 261 615 l 261 759 l 1250 759 l 1250 609 l 917 609 l 917 173 l 1043 173 l 1043 -191 l 870 -191 l 870 0 l 251 0 l 251 -191 l 78 -191 l 78 173 l 118 173 q 228 285 196 199 q 261 615 261 370 m 674 173 l 674 585 l 503 585 l 503 564 q 447 173 503 316 l 674 173 "},"l":{"x_min":117,"x_max":360,"ha":476,"o":"m 117 1055 l 360 1055 l 360 0 l 117 0 l 117 1055 "},"¤":{"x_min":50.625,"x_max":836,"ha":884,"o":"m 295 181 l 154 41 l 50 145 l 191 286 q 162 355 172 319 q 153 434 153 391 q 163 513 153 477 q 193 581 173 550 l 52 720 l 155 825 l 296 684 q 365 715 328 705 q 443 725 402 725 q 516 715 480 725 q 592 687 553 706 l 732 827 l 836 723 l 695 583 q 724 508 714 545 q 734 434 734 471 q 724 356 734 391 q 693 288 714 320 l 834 148 l 729 44 l 589 184 q 522 153 558 163 q 443 144 486 144 q 367 153 404 144 q 295 181 330 162 m 443 286 q 548 329 505 286 q 592 434 592 372 q 548 539 592 496 q 443 583 505 583 q 338 539 381 583 q 295 434 295 496 q 337 328 295 371 q 443 286 380 286 "},"4":{"x_min":62,"x_max":902,"ha":966,"o":"m 511 797 l 224 374 l 511 374 l 511 797 m 467 1013 l 758 1013 l 758 374 l 902 374 l 902 185 l 758 185 l 758 0 l 511 0 l 511 185 l 62 185 l 62 408 l 467 1013 "},"p":{"x_min":117,"x_max":932,"ha":994,"o":"m 360 110 l 360 -289 l 117 -289 l 117 760 l 360 760 l 360 648 q 471 746 410 714 q 611 778 532 778 q 841 666 751 778 q 932 379 932 554 q 841 91 932 203 q 611 -20 751 -20 q 471 11 532 -20 q 360 110 410 43 m 521 602 q 401 544 443 602 q 360 379 360 487 q 401 213 360 270 q 521 156 443 156 q 640 213 599 156 q 681 379 681 270 q 640 544 681 487 q 521 602 599 602 "},"à":{"x_min":60,"x_max":828,"ha":937,"o":"m 457 342 q 343 316 381 342 q 305 239 305 290 q 335 167 305 193 q 421 141 366 141 q 536 190 489 141 q 583 314 583 239 l 583 342 l 457 342 m 828 433 l 828 0 l 583 0 l 583 112 q 473 11 534 42 q 324 -20 412 -20 q 133 48 207 -20 q 60 227 60 117 q 151 423 60 361 q 440 486 243 486 l 583 486 l 583 505 q 537 590 583 563 q 395 617 492 617 q 250 601 317 617 q 126 555 183 586 l 126 740 q 282 768 204 758 q 440 778 361 778 q 736 696 645 778 q 828 433 828 615 m 381 1111 l 573 856 l 440 856 l 190 1111 l 381 1111 "},"Ü":{"x_min":128,"x_max":1001,"ha":1128,"o":"m 128 1013 l 389 1013 l 389 405 q 430 225 389 279 q 564 172 471 172 q 698 225 657 172 q 740 405 740 279 l 740 1013 l 1001 1013 l 1001 405 q 893 85 1001 190 q 564 -20 785 -20 q 235 85 343 -20 q 128 405 128 190 l 128 1013 m 351 1288 l 510 1288 l 510 1121 l 351 1121 l 351 1288 m 619 1288 l 778 1288 l 778 1121 l 619 1121 l 619 1288 "},"ó":{"x_min":60,"x_max":895,"ha":954,"o":"m 478 604 q 355 546 397 604 q 313 379 313 488 q 355 211 313 269 q 478 154 397 154 q 599 211 557 154 q 642 379 642 269 q 599 546 642 488 q 478 604 557 604 m 478 778 q 784 672 674 778 q 895 379 895 566 q 784 85 895 191 q 478 -20 674 -20 q 170 85 281 -20 q 60 379 60 191 q 170 672 60 566 q 478 778 281 778 m 585 1111 l 777 1111 l 526 856 l 394 856 l 585 1111 "},"₴":{"x_min":59.6875,"x_max":1133.984375,"ha":1194,"o":"m 781 442 q 1133 442 781 442 l 1133 310 l 453 310 q 448 279 448 296 q 494 198 448 226 q 625 169 539 169 q 799 195 709 169 q 987 273 890 221 l 987 52 q 793 -1 890 16 q 600 -19 696 -19 q 297 62 396 -19 q 197 310 196 143 l 59 310 l 59 442 l 222 442 q 268 507 240 480 q 368 570 305 543 q 59 570 368 570 l 59 701 l 752 701 q 759 735 759 716 q 714 815 759 790 q 576 841 670 841 q 426 822 505 841 q 263 766 347 803 l 263 980 q 446 1018 358 1005 q 617 1030 534 1030 q 898 949 800 1030 q 996 716 996 868 q 996 701 996 709 l 1133 701 l 1133 570 l 961 570 q 926 524 949 548 q 781 442 874 473 "}}}
